<svg width="330" height="89" viewBox="0 0 330 89" fill="none" xmlns="http://www.w3.org/2000/svg">
<g clip-path="url(#clip0_2_11929)">
<rect width="330" height="89" rx="20" fill="#A4D39C"/>
<path d="M281.154 34.1781L290.333 168.474L169.44 109.275L281.154 34.1781Z" fill="white"/>
<path d="M287.677 9.23401L330.825 136.74L198.827 110.354L287.677 9.23401Z" fill="#222222"/>
<circle cx="303.5" cy="77.5" r="46.5" fill="#FAE5AF"/>
<g clip-path="url(#clip1_2_11929)">
<g clip-path="url(#clip2_2_11929)">
<path d="M20 20H69V69H20V20Z" fill="#89D0FF"/>
<path opacity="0.33" d="M69 45.725L59.0469 47.7156L52.1562 44.1172L29.3406 47.8688L20 45.5719V68.6172H69V45.725Z" fill="#62727A"/>
<path opacity="0.33" d="M20 53.3812L27.6562 56.1375L36.8438 51.7734L65.0187 56.2906L69 53.2281V68.6172H20V53.3812Z" fill="#62727A"/>
<path d="M62.7219 58.0516L54.4531 51.5438L46.0312 37.6094L41.2844 44.5766L34.5469 49.1703L31.1016 56.3672L27.6562 58.0516L20 69H69L62.7219 58.0516Z" fill="#62727A"/>
<path d="M46.0312 37.6094L44.7297 43.3516L48.175 48.0219L43.9641 47.7922L50.0891 52.1562L45.4953 55.0656L41.2078 64.7125L42.3563 57.8219L33.7812 56.0609L43.3516 52.9984L41.2844 44.5766L46.0312 37.6094ZM59.0469 55.2188L54.8359 59.8891L48.7109 64.7125L57.5156 61.1141L62.7219 58.0516L59.0469 55.2188ZM31.1016 56.3672L27.6562 58.0516L33.7812 62.9516L31.1016 56.3672ZM53.6109 35.0063C53.4578 34.7766 53.3812 34.5469 53.3812 34.2406C53.3812 33.5516 53.9172 33.0156 54.6063 33.0156C55.2188 33.0156 55.7547 33.475 55.8312 34.0875C56.2141 33.9344 56.5969 33.8578 56.9797 33.8578C58.1281 33.8578 59.1234 34.5469 59.6594 35.4656C59.8891 35.1594 60.3484 34.9297 60.8078 34.9297C61.0375 34.9297 61.2672 35.0063 61.4969 35.0828C61.9562 34.3172 62.7219 33.7812 63.7172 33.7812C64.7125 33.7812 65.6312 34.3937 66.0141 35.2359H66.2438C67.0094 35.2359 67.6219 35.8484 67.6219 36.5375C67.6219 37.2266 67.0094 37.8391 66.2438 37.8391C66.0141 37.8391 65.8609 37.7625 65.7078 37.6859C65.0953 38.375 64.4062 38.7578 63.6406 38.7578H63.5641C63.4109 39.2937 62.9516 39.6766 62.3391 39.6766C62.1859 39.6766 62.0328 39.6766 61.8797 39.6C61.4969 40.2891 60.8078 40.6719 59.9656 40.6719C59.1234 40.6719 58.3578 40.2125 57.975 39.4469C57.6687 39.6 57.2859 39.6 56.9797 39.6C55.9844 39.6 55.1422 39.1406 54.6063 38.375C54.4531 38.4516 54.2234 38.4516 53.9938 38.4516C52.9984 38.4516 52.1562 37.6094 52.1562 36.6141C52.1562 35.8484 52.7688 35.1594 53.6109 35.0063Z" fill="white"/>
<path d="M65.7844 36.9203C65.6313 36.9203 65.4016 36.9203 65.2484 36.8438C64.7891 37.3031 64.1766 37.6094 63.4109 37.6094H63.3344C63.1812 38.0688 62.7219 38.375 62.1859 38.375C62.0328 38.375 61.8797 38.375 61.7266 38.2984C61.3438 38.8344 60.6547 39.2172 59.8891 39.2172C59.0469 39.2172 58.3578 38.8344 58.0516 38.2219C57.7453 38.2984 57.4391 38.375 57.0563 38.375C56.1375 38.375 55.2953 37.9922 54.7594 37.3797C54.6063 37.4563 54.3766 37.4562 54.2234 37.4562C53.8406 37.4562 53.5344 37.3797 53.3047 37.2266C53.5344 37.7625 54.1469 38.1453 54.7594 38.1453C54.9125 38.1453 55.1422 38.1453 55.2953 38.0688C55.7547 38.6813 56.5203 39.0641 57.3625 39.0641C57.6687 39.0641 57.975 38.9875 58.2813 38.9109C58.5875 39.5234 59.2 39.9062 59.9656 39.9062C60.6547 39.9062 61.2672 39.5234 61.65 38.9875C61.8031 39.0641 61.9563 39.0641 62.0328 39.0641C62.5688 39.0641 62.9516 38.7578 63.1047 38.2984H63.1813C63.8703 38.2984 64.4828 37.9922 64.8656 37.5328C65.0188 37.6094 65.1719 37.6094 65.325 37.6094C65.8609 37.6094 66.2437 37.3031 66.3969 36.8438C66.1672 36.9203 65.9375 36.9203 65.7844 36.9203Z" fill="#89D0FF"/>
<path d="M41.6672 26.5844C41.8969 26.2781 42.05 25.9719 42.05 25.589C42.05 24.6703 41.2844 23.9047 40.2891 23.9047C39.4469 23.9047 38.6813 24.5172 38.5281 25.3594C38.0688 25.1297 37.5328 25.0531 36.9203 25.0531C35.3125 25.0531 33.8578 25.9719 33.2453 27.35C32.8625 26.8906 32.3266 26.5844 31.7141 26.5844C31.3313 26.5844 31.025 26.6609 30.7188 26.814C30.1062 25.7422 28.9578 25.0531 27.6562 25.0531C26.2016 25.0531 24.9766 25.8953 24.4406 27.1203H24.1344C23.1391 27.0437 22.2969 27.8094 22.2969 28.8812C22.2969 29.9531 23.1391 30.7187 24.2109 30.7187C24.5172 30.7187 24.7469 30.6422 24.9766 30.5656C25.5891 31.3312 26.5844 31.8672 27.7328 31.8672H27.8094C28.0391 32.6328 28.6516 33.1687 29.4937 33.1687C29.7234 33.1687 29.9531 33.0922 30.1828 33.0156C30.7188 33.9344 31.7141 34.5469 32.8625 34.5469C34.0875 34.5469 35.0828 33.8578 35.6187 32.8625C36.0781 33.0156 36.5375 33.0922 37.0734 33.0922C38.4516 33.0922 39.6766 32.4031 40.4422 31.4078C40.6719 31.4844 40.9781 31.5609 41.2844 31.5609C42.7391 31.5609 43.8875 30.4125 43.8875 29.0344C43.7344 27.8094 42.8922 26.814 41.6672 26.5844Z" fill="white"/>
<path d="M40.7484 29.3406C40.4422 29.3406 40.2125 29.2641 39.9828 29.1875C39.2938 30.0297 38.1453 30.5656 36.7672 30.5656C36.3078 30.5656 35.8484 30.4891 35.3891 30.3359C34.9297 31.1781 33.9344 31.7141 32.7859 31.7141C31.7141 31.7141 30.7187 31.1781 30.2594 30.4125C30.0297 30.4891 29.8766 30.4891 29.6469 30.4891C28.8813 30.4891 28.1922 30.0297 28.0391 29.4172H27.9625C26.8906 29.5703 25.9719 29.1109 25.3594 28.4219C25.1297 28.4984 24.9 28.575 24.5938 28.575C24.2875 28.575 24.0578 28.4984 23.8281 28.4219C23.9047 29.1875 24.5937 29.8766 25.4359 29.8766C25.6656 29.8766 25.8953 29.8 26.125 29.7234C26.6609 30.4125 27.5031 30.7953 28.4984 30.7953H28.575C28.7281 31.4078 29.3406 31.8672 30.0297 31.8672C30.2594 31.8672 30.4125 31.7906 30.6422 31.7906C31.1016 32.5562 31.9437 33.0922 32.9391 33.0922C34.0109 33.0922 34.8531 32.5563 35.3125 31.7141C35.6953 31.8672 36.0781 31.9438 36.5375 31.9438C37.6859 31.9438 38.7578 31.4078 39.4469 30.5656C39.6766 30.6422 39.9062 30.7188 40.1359 30.7188C41.2078 30.7188 42.1266 30.0297 42.3563 29.0344C41.8203 29.1875 41.2844 29.3406 40.7484 29.3406Z" fill="#89D0FF"/>
</g>
</g>
<rect x="21" y="21" width="47" height="47" rx="23.5" stroke="white" stroke-width="2"/>
<path d="M89.9575 24.7578V34H88.0596V24.7578H89.9575ZM92.8013 24.7578V26.2495H85.2603V24.7578H92.8013ZM96.0021 27.1318V34H94.1677V27.1318H96.0021ZM94.0534 25.3418C94.0534 25.0752 94.1465 24.8551 94.3327 24.6816C94.5189 24.5081 94.7686 24.4214 95.0817 24.4214C95.3907 24.4214 95.6382 24.5081 95.8244 24.6816C96.0148 24.8551 96.1101 25.0752 96.1101 25.3418C96.1101 25.6084 96.0148 25.8285 95.8244 26.002C95.6382 26.1755 95.3907 26.2622 95.0817 26.2622C94.7686 26.2622 94.5189 26.1755 94.3327 26.002C94.1465 25.8285 94.0534 25.6084 94.0534 25.3418ZM99.641 28.5537V34H97.8065V27.1318H99.5268L99.641 28.5537ZM99.3871 30.3247H98.8793C98.8793 29.8465 98.9364 29.4064 99.0507 29.0044C99.1692 28.5981 99.3406 28.2469 99.5648 27.9507C99.7934 27.6502 100.075 27.4175 100.409 27.2524C100.743 27.0874 101.131 27.0049 101.571 27.0049C101.875 27.0049 102.155 27.0514 102.409 27.1445C102.663 27.2334 102.88 27.3752 103.062 27.5698C103.249 27.7603 103.392 28.0099 103.494 28.3188C103.596 28.6235 103.646 28.9896 103.646 29.417V34H101.818V29.6201C101.818 29.307 101.776 29.0658 101.691 28.8965C101.607 28.7272 101.486 28.6087 101.329 28.541C101.177 28.4733 100.993 28.4395 100.777 28.4395C100.54 28.4395 100.333 28.4881 100.155 28.5854C99.9817 28.6828 99.8378 28.8182 99.7235 28.9917C99.6093 29.161 99.5246 29.3599 99.4696 29.5884C99.4146 29.8169 99.3871 30.0623 99.3871 30.3247ZM103.475 30.1152L102.821 30.1978C102.821 29.7492 102.876 29.3324 102.986 28.9473C103.1 28.5622 103.268 28.2236 103.488 27.9316C103.712 27.6396 103.989 27.4132 104.319 27.2524C104.649 27.0874 105.03 27.0049 105.462 27.0049C105.792 27.0049 106.092 27.0535 106.363 27.1509C106.634 27.244 106.865 27.3942 107.055 27.6016C107.25 27.8047 107.398 28.0713 107.499 28.4014C107.605 28.7314 107.658 29.1356 107.658 29.6138V34H105.824V29.6138C105.824 29.2964 105.781 29.0552 105.697 28.8901C105.616 28.7209 105.498 28.6045 105.341 28.541C105.189 28.4733 105.007 28.4395 104.795 28.4395C104.575 28.4395 104.383 28.4839 104.218 28.5728C104.053 28.6574 103.915 28.7759 103.805 28.9282C103.695 29.0806 103.613 29.2583 103.558 29.4614C103.503 29.6603 103.475 29.8783 103.475 30.1152ZM112.535 34.127C112.002 34.127 111.523 34.0423 111.1 33.873C110.677 33.6995 110.317 33.4604 110.021 33.1558C109.729 32.8511 109.505 32.4977 109.348 32.0957C109.192 31.6895 109.113 31.2578 109.113 30.8008V30.5469C109.113 30.0264 109.187 29.5503 109.336 29.1187C109.484 28.687 109.695 28.3125 109.97 27.9951C110.25 27.6777 110.588 27.4344 110.986 27.2651C111.384 27.0916 111.832 27.0049 112.332 27.0049C112.818 27.0049 113.25 27.0853 113.627 27.2461C114.003 27.4069 114.318 27.6354 114.572 27.9316C114.831 28.2279 115.025 28.5833 115.156 28.998C115.288 29.4085 115.353 29.8656 115.353 30.3691V31.1309H109.894V29.9121H113.557V29.7725C113.557 29.5186 113.51 29.2922 113.417 29.0933C113.328 28.8901 113.193 28.7293 113.011 28.6108C112.829 28.4924 112.596 28.4331 112.313 28.4331C112.071 28.4331 111.864 28.486 111.691 28.5918C111.517 28.6976 111.375 28.8457 111.265 29.0361C111.159 29.2266 111.079 29.4508 111.024 29.709C110.973 29.9629 110.948 30.2422 110.948 30.5469V30.8008C110.948 31.0758 110.986 31.3298 111.062 31.5625C111.143 31.7952 111.255 31.9963 111.399 32.1655C111.547 32.3348 111.724 32.466 111.932 32.5591C112.143 32.6522 112.382 32.6987 112.649 32.6987C112.979 32.6987 113.286 32.6353 113.569 32.5083C113.857 32.3771 114.105 32.1803 114.312 31.918L115.201 32.8828C115.057 33.0902 114.86 33.2891 114.61 33.4795C114.365 33.6699 114.069 33.8265 113.722 33.9492C113.375 34.0677 112.979 34.127 112.535 34.127ZM124.288 36.6406V28.5347L124.522 27.1318H126.128V36.6406H124.288ZM119.946 30.6357V30.5024C119.946 29.9777 120.003 29.5016 120.117 29.0742C120.236 28.6426 120.409 28.2744 120.638 27.9697C120.866 27.6608 121.146 27.4238 121.476 27.2588C121.81 27.0895 122.195 27.0049 122.631 27.0049C123.05 27.0049 123.412 27.0895 123.716 27.2588C124.021 27.4281 124.277 27.6672 124.484 27.9761C124.696 28.285 124.865 28.6489 124.992 29.0679C125.119 29.4868 125.216 29.946 125.284 30.4453V30.7373C125.221 31.2155 125.123 31.6598 124.992 32.0703C124.865 32.4808 124.696 32.8405 124.484 33.1494C124.277 33.4583 124.019 33.6995 123.71 33.873C123.405 34.0423 123.041 34.127 122.618 34.127C122.191 34.127 121.81 34.0402 121.476 33.8667C121.146 33.689 120.866 33.4435 120.638 33.1304C120.409 32.8172 120.236 32.4491 120.117 32.0259C120.003 31.5985 119.946 31.1351 119.946 30.6357ZM121.774 30.5024V30.6357C121.774 30.9193 121.797 31.1859 121.844 31.4355C121.89 31.681 121.964 31.8989 122.066 32.0894C122.172 32.2798 122.307 32.43 122.472 32.54C122.637 32.6458 122.84 32.6987 123.082 32.6987C123.416 32.6987 123.685 32.6268 123.888 32.4829C124.095 32.3348 124.247 32.1338 124.345 31.8799C124.446 31.626 124.506 31.3361 124.522 31.0103V30.1787C124.51 29.9121 124.474 29.673 124.415 29.4614C124.36 29.2456 124.275 29.0615 124.161 28.9092C124.051 28.7568 123.907 28.6405 123.729 28.5601C123.556 28.4754 123.344 28.4331 123.094 28.4331C122.857 28.4331 122.654 28.486 122.485 28.5918C122.316 28.6976 122.178 28.8457 122.072 29.0361C121.971 29.2223 121.895 29.4403 121.844 29.6899C121.797 29.9396 121.774 30.2104 121.774 30.5024ZM131.932 32.356V27.1318H133.76V34H132.04L131.932 32.356ZM132.135 30.9468L132.675 30.9341C132.675 31.3911 132.622 31.8164 132.516 32.21C132.41 32.5993 132.251 32.9378 132.04 33.2256C131.828 33.5091 131.562 33.7313 131.24 33.8921C130.918 34.0487 130.54 34.127 130.104 34.127C129.769 34.127 129.46 34.0804 129.177 33.9873C128.898 33.89 128.656 33.7397 128.453 33.5366C128.254 33.3293 128.098 33.0648 127.984 32.7432C127.874 32.4173 127.819 32.0259 127.819 31.5688V27.1318H129.647V31.5815C129.647 31.7847 129.67 31.9561 129.717 32.0957C129.767 32.2354 129.837 32.3496 129.926 32.4385C130.015 32.5273 130.119 32.5908 130.237 32.6289C130.36 32.667 130.495 32.686 130.643 32.686C131.02 32.686 131.316 32.6099 131.532 32.4575C131.752 32.3052 131.906 32.0978 131.995 31.8354C132.088 31.5688 132.135 31.2726 132.135 30.9468ZM139.163 32.4512V29.3916C139.163 29.1715 139.128 28.9832 139.056 28.8267C138.984 28.6659 138.871 28.541 138.719 28.4521C138.571 28.3633 138.378 28.3188 138.142 28.3188C137.938 28.3188 137.763 28.3548 137.615 28.4268C137.467 28.4945 137.352 28.5939 137.272 28.7251C137.191 28.8521 137.151 29.0023 137.151 29.1758H135.323C135.323 28.8838 135.391 28.6066 135.526 28.3442C135.662 28.0819 135.858 27.8512 136.117 27.6523C136.375 27.4492 136.682 27.2905 137.037 27.1763C137.397 27.062 137.799 27.0049 138.243 27.0049C138.776 27.0049 139.25 27.0938 139.665 27.2715C140.08 27.4492 140.405 27.7158 140.642 28.0713C140.884 28.4268 141.004 28.8711 141.004 29.4043V32.3433C141.004 32.7199 141.028 33.0288 141.074 33.27C141.121 33.507 141.188 33.7144 141.277 33.8921V34H139.43C139.341 33.8138 139.274 33.5811 139.227 33.3018C139.185 33.0182 139.163 32.7347 139.163 32.4512ZM139.405 29.8169L139.417 30.8516H138.395C138.154 30.8516 137.945 30.8791 137.767 30.9341C137.589 30.9891 137.443 31.0674 137.329 31.1689C137.215 31.2663 137.13 31.3805 137.075 31.5117C137.024 31.6429 136.999 31.7868 136.999 31.9434C136.999 32.0999 137.035 32.2417 137.107 32.3687C137.179 32.4914 137.282 32.5887 137.418 32.6606C137.553 32.7284 137.712 32.7622 137.894 32.7622C138.169 32.7622 138.408 32.7072 138.611 32.5972C138.814 32.4871 138.971 32.3517 139.081 32.1909C139.195 32.0301 139.254 31.8778 139.259 31.7339L139.741 32.5083C139.673 32.6818 139.58 32.8617 139.462 33.0479C139.348 33.234 139.202 33.4097 139.024 33.5747C138.846 33.7355 138.632 33.8688 138.383 33.9746C138.133 34.0762 137.837 34.127 137.494 34.127C137.058 34.127 136.662 34.0402 136.307 33.8667C135.956 33.689 135.676 33.4456 135.469 33.1367C135.266 32.8236 135.164 32.4681 135.164 32.0703C135.164 31.7106 135.232 31.3911 135.368 31.1118C135.503 30.8325 135.702 30.5977 135.964 30.4072C136.231 30.2126 136.563 30.0666 136.961 29.9692C137.359 29.8677 137.82 29.8169 138.345 29.8169H139.405ZM144.643 24.25V34H142.809V24.25H144.643ZM148.384 27.1318V34H146.549V27.1318H148.384ZM146.435 25.3418C146.435 25.0752 146.528 24.8551 146.714 24.6816C146.9 24.5081 147.15 24.4214 147.463 24.4214C147.772 24.4214 148.02 24.5081 148.206 24.6816C148.396 24.8551 148.492 25.0752 148.492 25.3418C148.492 25.6084 148.396 25.8285 148.206 26.002C148.02 26.1755 147.772 26.2622 147.463 26.2622C147.15 26.2622 146.9 26.1755 146.714 26.002C146.528 25.8285 146.435 25.6084 146.435 25.3418ZM153.559 27.1318V28.4268H149.56V27.1318H153.559ZM150.55 25.437H152.378V31.9307C152.378 32.1296 152.403 32.2819 152.454 32.3877C152.509 32.4935 152.59 32.5675 152.695 32.6099C152.801 32.6479 152.934 32.667 153.095 32.667C153.209 32.667 153.311 32.6628 153.4 32.6543C153.493 32.6416 153.571 32.6289 153.635 32.6162L153.641 33.9619C153.485 34.0127 153.315 34.0529 153.133 34.0825C152.951 34.1121 152.75 34.127 152.53 34.127C152.128 34.127 151.777 34.0614 151.477 33.9302C151.18 33.7948 150.952 33.5789 150.791 33.2827C150.63 32.9865 150.55 32.5972 150.55 32.1147V25.437ZM156.937 33.2256L158.759 27.1318H160.72L157.959 35.0347C157.9 35.2082 157.82 35.3944 157.718 35.5933C157.621 35.7922 157.487 35.9805 157.318 36.1582C157.153 36.3402 156.944 36.4883 156.69 36.6025C156.44 36.7168 156.133 36.7739 155.769 36.7739C155.596 36.7739 155.454 36.7633 155.344 36.7422C155.234 36.721 155.103 36.6914 154.95 36.6533V35.314C154.997 35.314 155.046 35.314 155.096 35.314C155.147 35.3182 155.196 35.3203 155.242 35.3203C155.484 35.3203 155.68 35.2928 155.833 35.2378C155.985 35.1828 156.108 35.0981 156.201 34.9839C156.294 34.8739 156.368 34.73 156.423 34.5522L156.937 33.2256ZM156.175 27.1318L157.667 32.1084L157.927 34.0444L156.683 34.1777L154.214 27.1318H156.175ZM167.078 28.5981V34H165.25V27.1318H166.963L167.078 28.5981ZM166.811 30.3247H166.316C166.316 29.8169 166.382 29.3599 166.513 28.9536C166.644 28.5431 166.828 28.194 167.065 27.9062C167.302 27.6143 167.583 27.3921 167.909 27.2397C168.239 27.0832 168.608 27.0049 169.014 27.0049C169.335 27.0049 169.629 27.0514 169.896 27.1445C170.163 27.2376 170.391 27.3857 170.582 27.5889C170.776 27.792 170.924 28.0607 171.026 28.395C171.132 28.7293 171.185 29.1377 171.185 29.6201V34H169.344V29.6138C169.344 29.3091 169.302 29.0721 169.217 28.9028C169.132 28.7336 169.007 28.6151 168.842 28.5474C168.682 28.4754 168.483 28.4395 168.246 28.4395C168 28.4395 167.787 28.4881 167.605 28.5854C167.427 28.6828 167.279 28.8182 167.16 28.9917C167.046 29.161 166.959 29.3599 166.9 29.5884C166.841 29.8169 166.811 30.0623 166.811 30.3247ZM172.583 30.6357V30.5024C172.583 29.9989 172.655 29.5355 172.799 29.1123C172.943 28.6849 173.152 28.3146 173.427 28.0015C173.702 27.6883 174.041 27.445 174.443 27.2715C174.845 27.0938 175.306 27.0049 175.826 27.0049C176.347 27.0049 176.81 27.0938 177.217 27.2715C177.623 27.445 177.964 27.6883 178.239 28.0015C178.518 28.3146 178.729 28.6849 178.873 29.1123C179.017 29.5355 179.089 29.9989 179.089 30.5024V30.6357C179.089 31.1351 179.017 31.5985 178.873 32.0259C178.729 32.4491 178.518 32.8193 178.239 33.1367C177.964 33.4499 177.625 33.6932 177.223 33.8667C176.821 34.0402 176.36 34.127 175.839 34.127C175.319 34.127 174.855 34.0402 174.449 33.8667C174.047 33.6932 173.706 33.4499 173.427 33.1367C173.152 32.8193 172.943 32.4491 172.799 32.0259C172.655 31.5985 172.583 31.1351 172.583 30.6357ZM174.411 30.5024V30.6357C174.411 30.9235 174.436 31.1922 174.487 31.4419C174.538 31.6916 174.618 31.9116 174.728 32.1021C174.843 32.2882 174.991 32.4342 175.173 32.54C175.355 32.6458 175.577 32.6987 175.839 32.6987C176.093 32.6987 176.311 32.6458 176.493 32.54C176.675 32.4342 176.821 32.2882 176.931 32.1021C177.041 31.9116 177.121 31.6916 177.172 31.4419C177.227 31.1922 177.255 30.9235 177.255 30.6357V30.5024C177.255 30.2231 177.227 29.9608 177.172 29.7153C177.121 29.4657 177.039 29.2456 176.925 29.0552C176.815 28.8605 176.669 28.7082 176.487 28.5981C176.305 28.4881 176.085 28.4331 175.826 28.4331C175.568 28.4331 175.348 28.4881 175.166 28.5981C174.989 28.7082 174.843 28.8605 174.728 29.0552C174.618 29.2456 174.538 29.4657 174.487 29.7153C174.436 29.9608 174.411 30.2231 174.411 30.5024ZM182.474 32.2227L183.902 27.1318H185.064L184.689 29.1313L183.261 34H182.29L182.474 32.2227ZM181.75 27.1318L182.772 32.2163L182.868 34H181.725L179.986 27.1318H181.75ZM186.372 32.1338L187.368 27.1318H189.139L187.4 34H186.264L186.372 32.1338ZM185.223 27.1318L186.645 32.1846L186.841 34H185.864L184.436 29.1377L184.074 27.1318H185.223Z" fill="black"/>
<path d="M94.002 47.2627H94.3242V49.3789H94.1416C93.2178 49.3789 92.4193 49.5221 91.7461 49.8086C91.0801 50.0951 90.5322 50.4889 90.1025 50.9902C89.6729 51.4915 89.3506 52.0788 89.1357 52.752C88.9281 53.418 88.8242 54.127 88.8242 54.8789V57.3389C88.8242 57.9619 88.8923 58.5133 89.0283 58.9932C89.1644 59.4658 89.3542 59.8633 89.5977 60.1855C89.8483 60.5007 90.1348 60.7406 90.457 60.9053C90.7793 61.07 91.1266 61.1523 91.499 61.1523C91.8857 61.1523 92.2367 61.0736 92.5518 60.916C92.8669 60.7513 93.1354 60.5257 93.3574 60.2393C93.5794 59.9528 93.7477 59.6126 93.8623 59.2188C93.9769 58.8249 94.0342 58.3952 94.0342 57.9297C94.0342 57.4857 93.9769 57.0703 93.8623 56.6836C93.7549 56.2897 93.5938 55.946 93.3789 55.6523C93.1641 55.3516 92.8955 55.1188 92.5732 54.9541C92.2581 54.7822 91.8929 54.6963 91.4775 54.6963C90.9619 54.6963 90.4928 54.818 90.0703 55.0615C89.6549 55.305 89.3184 55.6237 89.0605 56.0176C88.8099 56.4043 88.6738 56.8161 88.6523 57.2529L87.6641 56.9307C87.7214 56.2646 87.8682 55.6667 88.1045 55.1367C88.348 54.6068 88.6667 54.1556 89.0605 53.7832C89.4544 53.4108 89.9092 53.1279 90.4248 52.9346C90.9476 52.734 91.5205 52.6338 92.1436 52.6338C92.9027 52.6338 93.5615 52.777 94.1201 53.0635C94.6787 53.3499 95.1406 53.7402 95.5059 54.2344C95.8783 54.7214 96.154 55.2799 96.333 55.9102C96.5192 56.5332 96.6123 57.1849 96.6123 57.8652C96.6123 58.6172 96.4977 59.319 96.2686 59.9707C96.0394 60.6152 95.7028 61.181 95.2588 61.668C94.8219 62.1549 94.2884 62.5345 93.6582 62.8066C93.0352 63.0788 92.3262 63.2148 91.5312 63.2148C90.6934 63.2148 89.945 63.0537 89.2861 62.7314C88.6344 62.4092 88.0794 61.9652 87.6211 61.3994C87.1699 60.8337 86.8262 60.182 86.5898 59.4443C86.3535 58.7067 86.2354 57.9261 86.2354 57.1025V56.0283C86.2354 54.8395 86.3857 53.7188 86.6865 52.666C86.9873 51.6061 87.4492 50.6715 88.0723 49.8623C88.7025 49.0531 89.5081 48.4193 90.4893 47.9609C91.4704 47.4954 92.6413 47.2627 94.002 47.2627ZM109.76 57.4248V59.4873H98.4807L98.3947 57.9297L105.141 47.3594H107.214L104.969 51.2051L101.091 57.4248H109.76ZM107.805 47.3594V63H105.216V47.3594H107.805ZM111.682 51.1943V50.3672C111.682 49.7728 111.811 49.2321 112.069 48.7451C112.327 48.2581 112.703 47.8678 113.197 47.5742C113.691 47.2806 114.285 47.1338 114.98 47.1338C115.696 47.1338 116.298 47.2806 116.785 47.5742C117.279 47.8678 117.655 48.2581 117.913 48.7451C118.17 49.2321 118.299 49.7728 118.299 50.3672V51.1943C118.299 51.7744 118.17 52.3079 117.913 52.7949C117.662 53.2819 117.289 53.6722 116.795 53.9658C116.308 54.2594 115.71 54.4062 115.001 54.4062C114.3 54.4062 113.698 54.2594 113.197 53.9658C112.703 53.6722 112.327 53.2819 112.069 52.7949C111.811 52.3079 111.682 51.7744 111.682 51.1943ZM113.476 50.3672V51.1943C113.476 51.4808 113.53 51.7529 113.637 52.0107C113.752 52.2686 113.924 52.4762 114.153 52.6338C114.382 52.7913 114.665 52.8701 115.001 52.8701C115.345 52.8701 115.624 52.7913 115.839 52.6338C116.061 52.4762 116.226 52.2686 116.333 52.0107C116.441 51.7529 116.495 51.4808 116.495 51.1943V50.3672C116.495 50.0736 116.437 49.7979 116.323 49.54C116.215 49.2751 116.051 49.0638 115.829 48.9062C115.607 48.7487 115.324 48.6699 114.98 48.6699C114.65 48.6699 114.371 48.7487 114.142 48.9062C113.92 49.0638 113.752 49.2751 113.637 49.54C113.53 49.7979 113.476 50.0736 113.476 50.3672ZM119.223 60.0029V59.165C119.223 58.5778 119.352 58.0407 119.61 57.5537C119.875 57.0667 120.254 56.6764 120.748 56.3828C121.243 56.0892 121.837 55.9424 122.532 55.9424C123.248 55.9424 123.849 56.0892 124.336 56.3828C124.83 56.6764 125.203 57.0667 125.454 57.5537C125.711 58.0407 125.84 58.5778 125.84 59.165V60.0029C125.84 60.5902 125.711 61.1273 125.454 61.6143C125.203 62.1012 124.834 62.4915 124.347 62.7852C123.86 63.0788 123.266 63.2256 122.564 63.2256C121.855 63.2256 121.25 63.0788 120.748 62.7852C120.254 62.4915 119.875 62.1012 119.61 61.6143C119.352 61.1273 119.223 60.5902 119.223 60.0029ZM121.028 59.165V60.0029C121.028 60.2894 121.085 60.5615 121.2 60.8193C121.321 61.0771 121.497 61.2884 121.726 61.4531C121.955 61.6107 122.231 61.6895 122.553 61.6895C122.918 61.6895 123.212 61.6107 123.434 61.4531C123.656 61.2884 123.814 61.0807 123.907 60.8301C124.007 60.5723 124.057 60.2965 124.057 60.0029V59.165C124.057 58.8714 124 58.5957 123.885 58.3379C123.778 58.0801 123.609 57.8724 123.38 57.7148C123.158 57.5573 122.875 57.4785 122.532 57.4785C122.195 57.4785 121.916 57.5573 121.694 57.7148C121.472 57.8724 121.303 58.0801 121.189 58.3379C121.081 58.5957 121.028 58.8714 121.028 59.165ZM123.176 49.5938L115.538 61.8184L114.217 61.0557L121.855 48.8311L123.176 49.5938Z" fill="black"/>
<rect x="211" y="30.5" width="57" height="28" rx="5" fill="white"/>
<path d="M230.802 46.1196C230.802 45.9292 230.772 45.7599 230.713 45.6118C230.658 45.4637 230.558 45.3283 230.415 45.2056C230.271 45.0828 230.068 44.9644 229.805 44.8501C229.547 44.7316 229.217 44.611 228.815 44.4883C228.375 44.3529 227.969 44.2026 227.596 44.0376C227.228 43.8683 226.906 43.6737 226.631 43.4536C226.356 43.2293 226.143 42.9733 225.99 42.6855C225.838 42.3936 225.762 42.0571 225.762 41.6763C225.762 41.2996 225.84 40.9569 225.997 40.6479C226.157 40.339 226.384 40.0724 226.676 39.8481C226.972 39.6196 227.321 39.444 227.723 39.3213C228.125 39.1943 228.569 39.1309 229.056 39.1309C229.742 39.1309 230.332 39.2578 230.827 39.5117C231.326 39.7656 231.709 40.1063 231.976 40.5337C232.247 40.9611 232.382 41.4329 232.382 41.9492H230.802C230.802 41.6445 230.736 41.3758 230.605 41.1431C230.478 40.9061 230.283 40.7199 230.021 40.5845C229.763 40.4491 229.435 40.3813 229.037 40.3813C228.66 40.3813 228.347 40.4385 228.098 40.5527C227.848 40.667 227.662 40.8215 227.539 41.0161C227.416 41.2108 227.355 41.4308 227.355 41.6763C227.355 41.8498 227.395 42.0085 227.476 42.1523C227.556 42.292 227.679 42.4232 227.844 42.5459C228.009 42.6644 228.216 42.7765 228.466 42.8823C228.715 42.9881 229.01 43.0897 229.348 43.187C229.86 43.3394 230.307 43.5086 230.688 43.6948C231.068 43.8768 231.386 44.0841 231.64 44.3169C231.894 44.5496 232.084 44.8141 232.211 45.1104C232.338 45.4023 232.401 45.7345 232.401 46.1069C232.401 46.4963 232.323 46.8475 232.167 47.1606C232.01 47.4696 231.786 47.734 231.494 47.9541C231.206 48.1699 230.859 48.3371 230.453 48.4556C230.051 48.5698 229.602 48.627 229.107 48.627C228.663 48.627 228.225 48.5677 227.793 48.4492C227.366 48.3307 226.976 48.1509 226.625 47.9097C226.274 47.6642 225.994 47.3595 225.787 46.9956C225.58 46.6274 225.476 46.1979 225.476 45.707H227.069C227.069 46.0075 227.12 46.2635 227.222 46.4751C227.327 46.6867 227.473 46.8602 227.66 46.9956C227.846 47.1268 228.062 47.2241 228.307 47.2876C228.557 47.3511 228.823 47.3828 229.107 47.3828C229.479 47.3828 229.79 47.3299 230.04 47.2241C230.294 47.1183 230.484 46.9702 230.611 46.7798C230.738 46.5894 230.802 46.3693 230.802 46.1196ZM236.907 41.6318V42.749H233.035V41.6318H236.907ZM234.152 39.9497H235.682V46.6021C235.682 46.8136 235.711 46.9766 235.77 47.0908C235.834 47.2008 235.921 47.2749 236.031 47.313C236.141 47.3511 236.27 47.3701 236.418 47.3701C236.524 47.3701 236.625 47.3638 236.723 47.3511C236.82 47.3384 236.898 47.3257 236.957 47.313L236.964 48.481C236.837 48.519 236.689 48.5529 236.519 48.5825C236.354 48.6121 236.164 48.627 235.948 48.627C235.597 48.627 235.286 48.5656 235.015 48.4429C234.744 48.3159 234.533 48.1107 234.38 47.8271C234.228 47.5436 234.152 47.167 234.152 46.6973V39.9497ZM242.059 47.1226V43.8472C242.059 43.6017 242.015 43.3901 241.926 43.2124C241.837 43.0347 241.702 42.8971 241.52 42.7998C241.342 42.7025 241.118 42.6538 240.847 42.6538C240.597 42.6538 240.381 42.6961 240.2 42.7808C240.018 42.8654 239.876 42.9797 239.774 43.1235C239.673 43.2674 239.622 43.4303 239.622 43.6123H238.098C238.098 43.3415 238.164 43.0791 238.295 42.8252C238.426 42.5713 238.617 42.3449 238.867 42.146C239.116 41.9471 239.415 41.7905 239.762 41.6763C240.109 41.562 240.498 41.5049 240.929 41.5049C241.446 41.5049 241.903 41.5916 242.301 41.7651C242.703 41.9386 243.018 42.201 243.246 42.5522C243.479 42.8993 243.596 43.3351 243.596 43.8599V46.9131C243.596 47.2262 243.617 47.5076 243.659 47.7573C243.706 48.0028 243.771 48.2165 243.856 48.3984V48.5H242.288C242.216 48.335 242.159 48.1255 242.117 47.8716C242.078 47.6134 242.059 47.3638 242.059 47.1226ZM242.282 44.3232L242.294 45.269H241.196C240.913 45.269 240.663 45.2965 240.447 45.3516C240.231 45.4023 240.051 45.4785 239.908 45.5801C239.764 45.6816 239.656 45.8044 239.584 45.9482C239.512 46.0921 239.476 46.255 239.476 46.437C239.476 46.619 239.518 46.7861 239.603 46.9385C239.687 47.0866 239.81 47.203 239.971 47.2876C240.136 47.3722 240.335 47.4146 240.568 47.4146C240.881 47.4146 241.154 47.3511 241.387 47.2241C241.624 47.0929 241.81 46.9342 241.945 46.748C242.081 46.5576 242.152 46.3778 242.161 46.2085L242.656 46.8877C242.605 47.0612 242.519 47.2474 242.396 47.4463C242.273 47.6452 242.112 47.8356 241.913 48.0176C241.719 48.1953 241.484 48.3413 241.209 48.4556C240.938 48.5698 240.625 48.627 240.269 48.627C239.821 48.627 239.421 48.5381 239.07 48.3604C238.718 48.1784 238.443 47.9351 238.244 47.6304C238.046 47.3215 237.946 46.9723 237.946 46.583C237.946 46.2191 238.014 45.8975 238.149 45.6182C238.289 45.3346 238.492 45.0977 238.759 44.9072C239.029 44.7168 239.36 44.5729 239.749 44.4756C240.138 44.374 240.582 44.3232 241.082 44.3232H242.282ZM246.831 42.9395V48.5H245.301V41.6318H246.761L246.831 42.9395ZM248.932 41.5874L248.92 43.0093C248.827 42.9924 248.725 42.9797 248.615 42.9712C248.509 42.9627 248.403 42.9585 248.298 42.9585C248.035 42.9585 247.805 42.9966 247.606 43.0728C247.407 43.1447 247.24 43.2505 247.104 43.3901C246.973 43.5256 246.871 43.6906 246.8 43.8853C246.728 44.0799 246.685 44.2979 246.673 44.5391L246.323 44.5645C246.323 44.1328 246.366 43.7329 246.45 43.3647C246.535 42.9966 246.662 42.6729 246.831 42.3936C247.005 42.1143 247.221 41.8963 247.479 41.7397C247.741 41.5832 248.044 41.5049 248.386 41.5049C248.48 41.5049 248.579 41.5133 248.685 41.5303C248.795 41.5472 248.877 41.5662 248.932 41.5874ZM253.457 41.6318V42.749H249.585V41.6318H253.457ZM250.702 39.9497H252.232V46.6021C252.232 46.8136 252.261 46.9766 252.32 47.0908C252.384 47.2008 252.471 47.2749 252.581 47.313C252.691 47.3511 252.82 47.3701 252.968 47.3701C253.074 47.3701 253.175 47.3638 253.273 47.3511C253.37 47.3384 253.448 47.3257 253.507 47.313L253.514 48.481C253.387 48.519 253.239 48.5529 253.069 48.5825C252.904 48.6121 252.714 48.627 252.498 48.627C252.147 48.627 251.836 48.5656 251.565 48.4429C251.294 48.3159 251.083 48.1107 250.93 47.8271C250.778 47.5436 250.702 47.167 250.702 46.6973V39.9497Z" fill="black"/>
</g>
<defs>
<clipPath id="clip0_2_11929">
<rect width="330" height="89" rx="20" fill="white"/>
</clipPath>
<clipPath id="clip1_2_11929">
<rect x="20" y="20" width="49" height="49" rx="24.5" fill="white"/>
</clipPath>
<clipPath id="clip2_2_11929">
<rect width="49" height="49" fill="white" transform="translate(20 20)"/>
</clipPath>
</defs>
</svg>
