<svg width="336" height="170" viewBox="0 0 336 170" fill="none" xmlns="http://www.w3.org/2000/svg">
<g filter="url(#filter0_d_2_10988)">
<rect x="3" y="1.15466" width="330" height="163" rx="20" fill="white"/>
<rect x="27" y="25.1547" width="71" height="25" rx="12.5" fill="#E9FFEB"/>
<path d="M43.9619 36.6V37.6688H39.8101V36.6H43.9619ZM40.1431 33.3344V41.1547H38.7949V33.3344H40.1431ZM44.9985 33.3344V41.1547H43.6558V33.3344H44.9985ZM48.3613 35.3431V41.1547H47.0615V35.3431H48.3613ZM46.9756 33.8177C46.9756 33.6208 47.04 33.4579 47.1689 33.329C47.3014 33.1965 47.484 33.1302 47.7168 33.1302C47.946 33.1302 48.1268 33.1965 48.2593 33.329C48.3918 33.4579 48.458 33.6208 48.458 33.8177C48.458 34.0111 48.3918 34.1722 48.2593 34.3011C48.1268 34.4301 47.946 34.4945 47.7168 34.4945C47.484 34.4945 47.3014 34.4301 47.1689 34.3011C47.04 34.1722 46.9756 34.0111 46.9756 33.8177ZM54.0015 35.3431H55.1777V40.9935C55.1777 41.5163 55.0667 41.9603 54.8447 42.3256C54.6227 42.6908 54.313 42.9683 53.9155 43.1581C53.5181 43.3514 53.0579 43.4481 52.5352 43.4481C52.3132 43.4481 52.0661 43.4159 51.7939 43.3514C51.5254 43.287 51.264 43.1831 51.0098 43.0399C50.7591 42.9003 50.5496 42.7159 50.3813 42.4867L50.9883 41.724C51.196 41.9711 51.4251 42.1519 51.6758 42.2665C51.9264 42.3811 52.1896 42.4384 52.4653 42.4384C52.7625 42.4384 53.015 42.3829 53.2227 42.2719C53.4339 42.1644 53.5968 42.0051 53.7114 41.7938C53.826 41.5826 53.8833 41.3247 53.8833 41.0204V36.6591L54.0015 35.3431ZM50.0537 38.3134V38.2006C50.0537 37.7601 50.1074 37.3591 50.2148 36.9974C50.3223 36.6322 50.4762 36.3189 50.6768 36.0575C50.8773 35.7925 51.1208 35.5902 51.4072 35.4506C51.6937 35.3073 52.0177 35.2357 52.3794 35.2357C52.7554 35.2357 53.0758 35.3038 53.3408 35.4398C53.6094 35.5759 53.8332 35.771 54.0122 36.0253C54.1912 36.2759 54.3309 36.5767 54.4312 36.9276C54.535 37.2749 54.612 37.6617 54.6621 38.0878V38.4476C54.6156 38.863 54.5368 39.2426 54.4258 39.5863C54.3148 39.9301 54.168 40.2273 53.9854 40.4779C53.8027 40.7286 53.5771 40.9219 53.3086 41.058C53.0436 41.1941 52.7303 41.2621 52.3687 41.2621C52.0142 41.2621 51.6937 41.1887 51.4072 41.0419C51.1243 40.8951 50.8809 40.6892 50.6768 40.4242C50.4762 40.1592 50.3223 39.8477 50.2148 39.4896C50.1074 39.128 50.0537 38.7359 50.0537 38.3134ZM51.3481 38.2006V38.3134C51.3481 38.5783 51.3732 38.8254 51.4233 39.0546C51.4771 39.2837 51.5576 39.486 51.665 39.6615C51.776 39.8334 51.9157 39.9694 52.084 40.0697C52.2559 40.1664 52.4582 40.2147 52.6909 40.2147C52.9953 40.2147 53.2441 40.1503 53.4375 40.0214C53.6344 39.8925 53.7848 39.7188 53.8887 39.5004C53.9961 39.2784 54.0713 39.0313 54.1143 38.7592V37.787C54.0928 37.5757 54.048 37.3788 53.98 37.1962C53.9155 37.0135 53.8278 36.8542 53.7168 36.7181C53.6058 36.5785 53.4661 36.4711 53.2979 36.3959C53.1296 36.3171 52.9308 36.2777 52.7017 36.2777C52.4689 36.2777 52.2666 36.3278 52.0947 36.4281C51.9229 36.5284 51.7814 36.6662 51.6704 36.8417C51.563 37.0171 51.4824 37.2212 51.4287 37.454C51.375 37.6867 51.3481 37.9356 51.3481 38.2006ZM58.2988 32.9047V41.1547H57.0098V32.9047H58.2988ZM58.0732 38.0341L57.6543 38.0287C57.6579 37.6276 57.7134 37.257 57.8208 36.9169C57.9318 36.5767 58.0858 36.2813 58.2827 36.0306C58.4832 35.7764 58.7231 35.5813 59.0024 35.4452C59.2817 35.3055 59.5915 35.2357 59.9316 35.2357C60.2181 35.2357 60.4759 35.2751 60.7051 35.3539C60.9378 35.4327 61.1383 35.5598 61.3066 35.7352C61.4749 35.9071 61.6021 36.1327 61.688 36.412C61.7775 36.6877 61.8223 37.0243 61.8223 37.4218V41.1547H60.5225V37.411C60.5225 37.1317 60.4813 36.9097 60.3989 36.745C60.3201 36.5803 60.2038 36.4621 60.0498 36.3905C59.8958 36.3153 59.7078 36.2777 59.4858 36.2777C59.2531 36.2777 59.0472 36.3243 58.8682 36.4174C58.6927 36.5105 58.5459 36.6376 58.4277 36.7987C58.3096 36.9598 58.2201 37.146 58.1592 37.3573C58.1019 37.5686 58.0732 37.7941 58.0732 38.0341ZM65.0186 32.9047V41.1547H63.7188V32.9047H65.0186ZM68.3223 35.3431V41.1547H67.0225V35.3431H68.3223ZM66.9365 33.8177C66.9365 33.6208 67.001 33.4579 67.1299 33.329C67.2624 33.1965 67.445 33.1302 67.6777 33.1302C67.9069 33.1302 68.0877 33.1965 68.2202 33.329C68.3527 33.4579 68.4189 33.6208 68.4189 33.8177C68.4189 34.0111 68.3527 34.1722 68.2202 34.3011C68.0877 34.4301 67.9069 34.4945 67.6777 34.4945C67.445 34.4945 67.2624 34.4301 67.1299 34.3011C67.001 34.1722 66.9365 34.0111 66.9365 33.8177ZM73.9624 35.3431H75.1387V40.9935C75.1387 41.5163 75.0277 41.9603 74.8057 42.3256C74.5837 42.6908 74.2739 42.9683 73.8765 43.1581C73.479 43.3514 73.0189 43.4481 72.4961 43.4481C72.2741 43.4481 72.027 43.4159 71.7549 43.3514C71.4863 43.287 71.2249 43.1831 70.9707 43.0399C70.7201 42.9003 70.5106 42.7159 70.3423 42.4867L70.9492 41.724C71.1569 41.9711 71.3861 42.1519 71.6367 42.2665C71.8874 42.3811 72.1506 42.4384 72.4263 42.4384C72.7235 42.4384 72.9759 42.3829 73.1836 42.2719C73.3949 42.1644 73.5578 42.0051 73.6724 41.7938C73.7869 41.5826 73.8442 41.3247 73.8442 41.0204V36.6591L73.9624 35.3431ZM70.0146 38.3134V38.2006C70.0146 37.7601 70.0684 37.3591 70.1758 36.9974C70.2832 36.6322 70.4372 36.3189 70.6377 36.0575C70.8382 35.7925 71.0817 35.5902 71.3682 35.4506C71.6546 35.3073 71.9787 35.2357 72.3403 35.2357C72.7163 35.2357 73.0368 35.3038 73.3018 35.4398C73.5703 35.5759 73.7941 35.771 73.9731 36.0253C74.1522 36.2759 74.2918 36.5767 74.3921 36.9276C74.4959 37.2749 74.5729 37.6617 74.623 38.0878V38.4476C74.5765 38.863 74.4977 39.2426 74.3867 39.5863C74.2757 39.9301 74.1289 40.2273 73.9463 40.4779C73.7637 40.7286 73.5381 40.9219 73.2695 41.058C73.0046 41.1941 72.6912 41.2621 72.3296 41.2621C71.9751 41.2621 71.6546 41.1887 71.3682 41.0419C71.0853 40.8951 70.8418 40.6892 70.6377 40.4242C70.4372 40.1592 70.2832 39.8477 70.1758 39.4896C70.0684 39.128 70.0146 38.7359 70.0146 38.3134ZM71.3091 38.2006V38.3134C71.3091 38.5783 71.3341 38.8254 71.3843 39.0546C71.438 39.2837 71.5186 39.486 71.626 39.6615C71.737 39.8334 71.8766 39.9694 72.0449 40.0697C72.2168 40.1664 72.4191 40.2147 72.6519 40.2147C72.9562 40.2147 73.2051 40.1503 73.3984 40.0214C73.5954 39.8925 73.7458 39.7188 73.8496 39.5004C73.957 39.2784 74.0322 39.0313 74.0752 38.7592V37.787C74.0537 37.5757 74.009 37.3788 73.9409 37.1962C73.8765 37.0135 73.7887 36.8542 73.6777 36.7181C73.5667 36.5785 73.4271 36.4711 73.2588 36.3959C73.0905 36.3171 72.8918 36.2777 72.6626 36.2777C72.4299 36.2777 72.2275 36.3278 72.0557 36.4281C71.8838 36.5284 71.7424 36.6662 71.6313 36.8417C71.5239 37.0171 71.4434 37.2212 71.3896 37.454C71.3359 37.6867 71.3091 37.9356 71.3091 38.2006ZM78.2598 32.9047V41.1547H76.9707V32.9047H78.2598ZM78.0342 38.0341L77.6152 38.0287C77.6188 37.6276 77.6743 37.257 77.7817 36.9169C77.8927 36.5767 78.0467 36.2813 78.2437 36.0306C78.4442 35.7764 78.6841 35.5813 78.9634 35.4452C79.2427 35.3055 79.5524 35.2357 79.8926 35.2357C80.179 35.2357 80.4368 35.2751 80.666 35.3539C80.8988 35.4327 81.0993 35.5598 81.2676 35.7352C81.4359 35.9071 81.563 36.1327 81.6489 36.412C81.7384 36.6877 81.7832 37.0243 81.7832 37.4218V41.1547H80.4834V37.411C80.4834 37.1317 80.4422 36.9097 80.3599 36.745C80.2811 36.5803 80.1647 36.4621 80.0107 36.3905C79.8568 36.3153 79.6688 36.2777 79.4468 36.2777C79.214 36.2777 79.0081 36.3243 78.8291 36.4174C78.6536 36.5105 78.5068 36.6376 78.3887 36.7987C78.2705 36.9598 78.181 37.146 78.1201 37.3573C78.0628 37.5686 78.0342 37.7941 78.0342 38.0341ZM86.2578 35.3431V36.2885H82.9814V35.3431H86.2578ZM83.9268 33.9198H85.2212V39.5487C85.2212 39.7277 85.2463 39.8656 85.2964 39.9623C85.3501 40.0554 85.4235 40.118 85.5166 40.1503C85.6097 40.1825 85.7189 40.1986 85.8442 40.1986C85.9338 40.1986 86.0197 40.1932 86.1021 40.1825C86.1844 40.1718 86.2507 40.161 86.3008 40.1503L86.3062 41.1385C86.1987 41.1708 86.0734 41.1994 85.9302 41.2245C85.7905 41.2496 85.6294 41.2621 85.4468 41.2621C85.1496 41.2621 84.8864 41.2102 84.6572 41.1063C84.4281 40.9989 84.249 40.8252 84.1201 40.5853C83.9912 40.3454 83.9268 40.0267 83.9268 39.6293V33.9198Z" fill="black"/>
<rect x="104" y="25.1547" width="54" height="25" rx="12.5" fill="#FDE3FF"/>
<path d="M117.143 33.3344V41.1547H115.795V33.3344H117.143ZM120.333 36.7557V37.8246H116.799V36.7557H120.333ZM120.779 33.3344V34.4086H116.799V33.3344H120.779ZM124.668 41.2621C124.239 41.2621 123.85 41.1923 123.503 41.0526C123.159 40.9094 122.866 40.7107 122.622 40.4564C122.382 40.2022 122.198 39.9032 122.069 39.5594C121.94 39.2157 121.875 38.8451 121.875 38.4476V38.2328C121.875 37.778 121.942 37.3663 122.074 36.9974C122.207 36.6286 122.391 36.3135 122.627 36.0521C122.864 35.7872 123.143 35.5848 123.465 35.4452C123.788 35.3055 124.137 35.2357 124.513 35.2357C124.928 35.2357 125.292 35.3055 125.603 35.4452C125.915 35.5848 126.172 35.7818 126.376 36.036C126.584 36.2867 126.738 36.5857 126.838 36.933C126.942 37.2803 126.994 37.6635 126.994 38.0824V38.6356H122.504V37.7064H125.716V37.6044C125.709 37.3716 125.662 37.1532 125.576 36.9491C125.494 36.745 125.367 36.5803 125.195 36.455C125.023 36.3296 124.794 36.267 124.507 36.267C124.292 36.267 124.101 36.3135 123.933 36.4066C123.768 36.4961 123.63 36.6268 123.519 36.7987C123.408 36.9706 123.322 37.1783 123.261 37.4218C123.204 37.6617 123.175 37.932 123.175 38.2328V38.4476C123.175 38.7019 123.209 38.9382 123.277 39.1566C123.349 39.3715 123.453 39.5594 123.589 39.7206C123.725 39.8817 123.89 40.0088 124.083 40.1019C124.276 40.1914 124.497 40.2362 124.744 40.2362C125.055 40.2362 125.333 40.1735 125.576 40.0482C125.82 39.9229 126.031 39.7456 126.21 39.5165L126.892 40.1771C126.767 40.3597 126.604 40.5352 126.403 40.7035C126.203 40.8682 125.958 41.0025 125.667 41.1063C125.381 41.2102 125.048 41.2621 124.668 41.2621ZM131.066 41.2621C130.636 41.2621 130.248 41.1923 129.9 41.0526C129.557 40.9094 129.263 40.7107 129.02 40.4564C128.78 40.2022 128.595 39.9032 128.466 39.5594C128.337 39.2157 128.273 38.8451 128.273 38.4476V38.2328C128.273 37.778 128.339 37.3663 128.472 36.9974C128.604 36.6286 128.789 36.3135 129.025 36.0521C129.261 35.7872 129.541 35.5848 129.863 35.4452C130.185 35.3055 130.534 35.2357 130.91 35.2357C131.326 35.2357 131.689 35.3055 132 35.4452C132.312 35.5848 132.57 35.7818 132.774 36.036C132.982 36.2867 133.136 36.5857 133.236 36.933C133.34 37.2803 133.392 37.6635 133.392 38.0824V38.6356H128.901V37.7064H132.113V37.6044C132.106 37.3716 132.06 37.1532 131.974 36.9491C131.891 36.745 131.764 36.5803 131.592 36.455C131.42 36.3296 131.191 36.267 130.905 36.267C130.69 36.267 130.498 36.3135 130.33 36.4066C130.165 36.4961 130.028 36.6268 129.917 36.7987C129.806 36.9706 129.72 37.1783 129.659 37.4218C129.601 37.6617 129.573 37.932 129.573 38.2328V38.4476C129.573 38.7019 129.607 38.9382 129.675 39.1566C129.746 39.3715 129.85 39.5594 129.986 39.7206C130.122 39.8817 130.287 40.0088 130.48 40.1019C130.674 40.1914 130.894 40.2362 131.141 40.2362C131.453 40.2362 131.73 40.1735 131.974 40.0482C132.217 39.9229 132.428 39.7456 132.607 39.5165L133.29 40.1771C133.164 40.3597 133.001 40.5352 132.801 40.7035C132.6 40.8682 132.355 41.0025 132.065 41.1063C131.778 41.2102 131.445 41.2621 131.066 41.2621ZM138.446 39.9515V32.9047H139.746V41.1547H138.57L138.446 39.9515ZM134.665 38.3134V38.2006C134.665 37.7601 134.717 37.3591 134.821 36.9974C134.925 36.6322 135.075 36.3189 135.272 36.0575C135.469 35.7925 135.709 35.5902 135.992 35.4506C136.275 35.3073 136.593 35.2357 136.948 35.2357C137.299 35.2357 137.607 35.3038 137.872 35.4398C138.137 35.5759 138.362 35.771 138.548 36.0253C138.735 36.2759 138.883 36.5767 138.994 36.9276C139.105 37.2749 139.184 37.6617 139.23 38.0878V38.4476C139.184 38.863 139.105 39.2426 138.994 39.5863C138.883 39.9301 138.735 40.2273 138.548 40.4779C138.362 40.7286 138.135 40.9219 137.866 41.058C137.601 41.1941 137.292 41.2621 136.937 41.2621C136.586 41.2621 136.269 41.1887 135.986 41.0419C135.707 40.8951 135.469 40.6892 135.272 40.4242C135.075 40.1592 134.925 39.8477 134.821 39.4896C134.717 39.128 134.665 38.7359 134.665 38.3134ZM135.959 38.2006V38.3134C135.959 38.5783 135.983 38.8254 136.029 39.0546C136.079 39.2837 136.156 39.486 136.26 39.6615C136.364 39.8334 136.498 39.9694 136.663 40.0697C136.831 40.1664 137.032 40.2147 137.265 40.2147C137.558 40.2147 137.8 40.1503 137.99 40.0214C138.18 39.8925 138.328 39.7188 138.436 39.5004C138.547 39.2784 138.622 39.0313 138.661 38.7592V37.787C138.64 37.5757 138.595 37.3788 138.527 37.1962C138.462 37.0135 138.375 36.8542 138.264 36.7181C138.153 36.5785 138.015 36.4711 137.85 36.3959C137.689 36.3171 137.497 36.2777 137.275 36.2777C137.039 36.2777 136.839 36.3278 136.674 36.4281C136.509 36.5284 136.373 36.6662 136.266 36.8417C136.162 37.0171 136.085 37.2212 136.035 37.454C135.985 37.6867 135.959 37.9356 135.959 38.2006ZM144.86 39.5809C144.86 39.452 144.828 39.3357 144.763 39.2318C144.699 39.1244 144.575 39.0277 144.393 38.9418C144.214 38.8558 143.949 38.7771 143.598 38.7054C143.29 38.6374 143.007 38.5568 142.749 38.4637C142.495 38.3671 142.276 38.2507 142.094 38.1146C141.911 37.9786 141.77 37.8174 141.669 37.6312C141.569 37.445 141.519 37.2302 141.519 36.9867C141.519 36.7504 141.571 36.5266 141.675 36.3153C141.779 36.104 141.927 35.9178 142.121 35.7567C142.314 35.5956 142.549 35.4685 142.824 35.3754C143.104 35.2823 143.415 35.2357 143.759 35.2357C144.246 35.2357 144.663 35.3181 145.01 35.4828C145.361 35.6439 145.63 35.8641 145.816 36.1434C146.002 36.4191 146.095 36.7307 146.095 37.078H144.801C144.801 36.924 144.761 36.7808 144.683 36.6483C144.607 36.5122 144.493 36.403 144.339 36.3207C144.185 36.2347 143.992 36.1918 143.759 36.1918C143.537 36.1918 143.352 36.2276 143.206 36.2992C143.062 36.3672 142.955 36.4567 142.883 36.5677C142.815 36.6788 142.781 36.8005 142.781 36.933C142.781 37.0297 142.799 37.1174 142.835 37.1962C142.874 37.2714 142.939 37.3412 143.028 37.4056C143.118 37.4665 143.24 37.5238 143.394 37.5775C143.551 37.6312 143.748 37.6831 143.984 37.7333C144.428 37.8264 144.81 37.9463 145.128 38.0931C145.451 38.2364 145.698 38.4226 145.87 38.6517C146.042 38.8773 146.127 39.1638 146.127 39.5111C146.127 39.7689 146.072 40.0052 145.961 40.2201C145.854 40.4314 145.696 40.6158 145.488 40.7733C145.281 40.9273 145.032 41.0472 144.742 41.1332C144.455 41.2191 144.133 41.2621 143.775 41.2621C143.249 41.2621 142.803 41.169 142.438 40.9828C142.072 40.793 141.795 40.5513 141.605 40.2577C141.419 39.9605 141.326 39.6525 141.326 39.3339H142.577C142.591 39.5738 142.658 39.7653 142.776 39.9086C142.898 40.0482 143.048 40.1503 143.227 40.2147C143.41 40.2756 143.598 40.306 143.791 40.306C144.024 40.306 144.219 40.2756 144.376 40.2147C144.534 40.1503 144.654 40.0643 144.736 39.9569C144.819 39.8459 144.86 39.7206 144.86 39.5809Z" fill="black"/>
<g clip-path="url(#clip0_2_10988)">
<path d="M291 39.6547C292.105 39.6547 293 38.7592 293 37.6547C293 36.5501 292.105 35.6547 291 35.6547C289.895 35.6547 289 36.5501 289 37.6547C289 38.7592 289.895 39.6547 291 39.6547Z" fill="black"/>
<path d="M299 39.6547C300.105 39.6547 301 38.7592 301 37.6547C301 36.5501 300.105 35.6547 299 35.6547C297.895 35.6547 297 36.5501 297 37.6547C297 38.7592 297.895 39.6547 299 39.6547Z" fill="black"/>
<path d="M307 39.6547C308.105 39.6547 309 38.7592 309 37.6547C309 36.5501 308.105 35.6547 307 35.6547C305.895 35.6547 305 36.5501 305 37.6547C305 38.7592 305.895 39.6547 307 39.6547Z" fill="black"/>
</g>
<path d="M31.7646 81.1547H29.1582L29.1748 79.3617H31.7646C32.4674 79.3617 33.0568 79.2067 33.5327 78.8969C34.0086 78.5814 34.3683 78.1304 34.6118 77.5438C34.8553 76.9517 34.9771 76.2434 34.9771 75.4188V74.7963C34.9771 74.1599 34.9079 73.5982 34.7695 73.1112C34.6312 72.6242 34.4264 72.2147 34.1553 71.8827C33.8896 71.5507 33.5604 71.2989 33.1675 71.1273C32.7746 70.9558 32.3236 70.87 31.8145 70.87H29.1084V69.0687H31.8145C32.6224 69.0687 33.3584 69.2043 34.0225 69.4755C34.6921 69.7466 35.2703 70.1368 35.7573 70.6459C36.2498 71.1495 36.6261 71.7526 36.8862 72.4554C37.1519 73.1582 37.2847 73.9441 37.2847 74.8129V75.4188C37.2847 76.2821 37.1519 77.0679 36.8862 77.7762C36.6261 78.479 36.2498 79.0822 35.7573 79.5858C35.2703 80.0894 34.6893 80.4768 34.0142 80.7479C33.339 81.0191 32.5892 81.1547 31.7646 81.1547ZM30.4365 69.0687V81.1547H28.1538V69.0687H30.4365ZM44.0083 79.2455V75.1034C44.0083 74.799 43.9557 74.5362 43.8506 74.3148C43.7454 74.0935 43.585 73.9219 43.3691 73.8002C43.1533 73.6784 42.8794 73.6176 42.5474 73.6176C42.2541 73.6176 41.9967 73.6674 41.7754 73.767C41.5596 73.8666 41.3936 74.0077 41.2773 74.1903C41.1611 74.3674 41.103 74.5721 41.103 74.8046H38.9033C38.9033 74.4338 38.9919 74.0824 39.1689 73.7504C39.346 73.4128 39.5978 73.114 39.9243 72.8539C40.2563 72.5883 40.652 72.3807 41.1113 72.2313C41.5762 72.0819 42.0964 72.0072 42.6719 72.0072C43.3525 72.0072 43.9585 72.1234 44.4897 72.3558C45.0265 72.5827 45.4471 72.9258 45.7515 73.3851C46.0614 73.8444 46.2163 74.4227 46.2163 75.12V79.038C46.2163 79.4862 46.244 79.8708 46.2993 80.1918C46.3602 80.5072 46.4487 80.7811 46.5649 81.0135V81.1547H44.332C44.2269 80.9278 44.1466 80.64 44.0913 80.2914C44.036 79.9372 44.0083 79.5886 44.0083 79.2455ZM44.3154 75.6844L44.332 76.9877H42.9458C42.6027 76.9877 42.3011 77.0236 42.041 77.0956C41.7809 77.162 41.5679 77.2616 41.4019 77.3944C41.2358 77.5217 41.1113 77.6766 41.0283 77.8593C40.9453 78.0363 40.9038 78.2383 40.9038 78.4652C40.9038 78.6866 40.9536 78.8858 41.0532 79.0629C41.1584 79.2399 41.3078 79.3811 41.5015 79.4862C41.7007 79.5858 41.9331 79.6356 42.1987 79.6356C42.5861 79.6356 42.9237 79.5581 43.2114 79.4032C43.4992 79.2427 43.7233 79.049 43.8838 78.8221C44.0443 78.5953 44.13 78.3794 44.1411 78.1747L44.772 79.121C44.6945 79.3479 44.5783 79.5886 44.4233 79.8431C44.2684 80.0977 44.0692 80.3357 43.8257 80.557C43.5822 80.7784 43.2889 80.961 42.9458 81.1049C42.6027 81.2487 42.2043 81.3207 41.7505 81.3207C41.1694 81.3207 40.6493 81.2045 40.1899 80.972C39.7306 80.7396 39.3682 80.4214 39.1025 80.0175C38.8369 79.6135 38.7041 79.1542 38.7041 78.6395C38.7041 78.1636 38.7926 77.743 38.9697 77.3778C39.1468 77.0126 39.4097 76.7054 39.7583 76.4564C40.1069 76.2019 40.5386 76.0109 41.0532 75.8837C41.5734 75.7509 42.1683 75.6844 42.8379 75.6844H44.3154ZM53.1309 78.6976C53.1309 78.5095 53.0811 78.3407 52.9814 78.1913C52.8818 78.0419 52.6937 77.9063 52.417 77.7845C52.1458 77.6573 51.7474 77.5383 51.2217 77.4276C50.7568 77.328 50.328 77.2035 49.9351 77.0541C49.5422 76.9047 49.2046 76.7248 48.9224 76.5145C48.6401 76.2987 48.4188 76.0469 48.2583 75.7592C48.1034 75.4659 48.0259 75.1283 48.0259 74.7465C48.0259 74.3757 48.1061 74.0271 48.2666 73.7006C48.4271 73.3685 48.6595 73.078 48.9639 72.829C49.2682 72.5744 49.639 72.3752 50.0762 72.2313C50.5133 72.0819 51.0059 72.0072 51.5537 72.0072C52.3174 72.0072 52.9731 72.1317 53.521 72.3807C54.0744 72.6298 54.4977 72.9729 54.791 73.41C55.0843 73.8417 55.231 74.3287 55.231 74.871H53.0396C53.0396 74.633 52.9842 74.4172 52.8735 74.2235C52.7684 74.0298 52.6051 73.8749 52.3838 73.7587C52.1624 73.6369 51.883 73.576 51.5454 73.576C51.241 73.576 50.9837 73.6259 50.7734 73.7255C50.5687 73.8251 50.4137 73.9551 50.3086 74.1156C50.2035 74.2761 50.1509 74.4532 50.1509 74.6469C50.1509 74.7907 50.1785 74.9208 50.2339 75.037C50.2948 75.1477 50.3916 75.25 50.5244 75.3441C50.6572 75.4382 50.8371 75.524 51.064 75.6014C51.2964 75.6789 51.5814 75.7536 51.9189 75.8256C52.5885 75.9584 53.1724 76.1355 53.6704 76.3568C54.174 76.5726 54.5669 76.8604 54.8491 77.2201C55.1313 77.5798 55.2725 78.0391 55.2725 78.598C55.2725 78.9965 55.1867 79.3617 55.0151 79.6937C54.8436 80.0202 54.5946 80.3052 54.2681 80.5487C53.9416 80.7922 53.5514 80.9831 53.0977 81.1215C52.6439 81.2543 52.132 81.3207 51.562 81.3207C50.7375 81.3207 50.0402 81.174 49.4702 80.8807C48.9002 80.5819 48.4686 80.2056 48.1753 79.7518C47.882 79.2925 47.7354 78.8166 47.7354 78.3241H49.8354C49.8521 78.6727 49.9461 78.9522 50.1177 79.1625C50.2892 79.3728 50.505 79.5249 50.7651 79.619C51.0308 79.7076 51.3102 79.7518 51.6035 79.7518C51.9355 79.7518 52.215 79.7076 52.4419 79.619C52.6688 79.5249 52.8403 79.4004 52.9565 79.2455C53.0728 79.085 53.1309 78.9024 53.1309 78.6976ZM59.0908 68.4047V81.1547H56.8911V68.4047H59.0908ZM58.7422 76.3402H58.0947C58.0947 75.7149 58.1777 75.1394 58.3438 74.6136C58.5098 74.0879 58.745 73.6314 59.0493 73.244C59.3537 72.8511 59.7161 72.5468 60.1367 72.3309C60.5628 72.1151 61.0332 72.0072 61.5479 72.0072C61.9906 72.0072 62.3918 72.0708 62.7515 72.1981C63.1167 72.3199 63.4294 72.5163 63.6895 72.7875C63.9495 73.0586 64.1488 73.4128 64.2871 73.85C64.431 74.2816 64.5029 74.8073 64.5029 75.4271V81.1547H62.2949V75.4105C62.2949 74.9955 62.234 74.669 62.1123 74.431C61.9906 74.1875 61.8162 74.0132 61.5894 73.9081C61.368 73.8029 61.0941 73.7504 60.7676 73.7504C60.4134 73.7504 60.109 73.8195 59.8545 73.9579C59.5999 74.0907 59.3896 74.2761 59.2236 74.514C59.0632 74.752 58.9414 75.0259 58.8584 75.3358C58.7809 75.6457 58.7422 75.9805 58.7422 76.3402ZM66.4287 68.4047H68.6284V79.1708L68.4126 81.1547H66.4287V68.4047ZM74.4058 76.5726V76.7469C74.4058 77.4165 74.3311 78.0308 74.1816 78.5897C74.0378 79.1486 73.8192 79.6329 73.5259 80.0424C73.2326 80.4463 72.8674 80.7618 72.4302 80.9886C71.9985 81.21 71.4922 81.3207 70.9111 81.3207C70.3577 81.3207 69.8763 81.2128 69.4668 80.9969C69.0628 80.7811 68.7225 80.4768 68.4458 80.0839C68.1691 79.6854 67.9478 79.2178 67.7817 78.681C67.6157 78.1387 67.4912 77.5466 67.4082 76.9047V76.4315C67.4912 75.7841 67.6157 75.1919 67.7817 74.6552C67.9478 74.1184 68.1691 73.6508 68.4458 73.2523C68.7225 72.8539 69.0628 72.5468 69.4668 72.3309C69.8708 72.1151 70.3467 72.0072 70.8945 72.0072C71.4811 72.0072 71.993 72.1206 72.4302 72.3475C72.8729 72.5689 73.2381 72.8843 73.5259 73.2938C73.8192 73.6978 74.0378 74.1792 74.1816 74.7382C74.3311 75.2915 74.4058 75.903 74.4058 76.5726ZM72.2061 76.7469V76.5726C72.2061 76.1908 72.1756 75.8311 72.1147 75.4935C72.0539 75.1504 71.9543 74.8488 71.8159 74.5887C71.6776 74.3287 71.4894 74.1239 71.2515 73.9745C71.0135 73.8251 70.7147 73.7504 70.355 73.7504C70.0119 73.7504 69.7186 73.8085 69.4751 73.9247C69.2371 74.0409 69.0379 74.2014 68.8774 74.4061C68.7225 74.6109 68.6007 74.8516 68.5122 75.1283C68.4292 75.405 68.3739 75.7038 68.3462 76.0248V77.3197C68.3849 77.7458 68.4762 78.1304 68.6201 78.4735C68.764 78.8111 68.9771 79.0795 69.2593 79.2787C69.547 79.4779 69.9178 79.5775 70.3716 79.5775C70.7257 79.5775 71.0218 79.5083 71.2598 79.37C71.4977 79.2261 71.6859 79.0269 71.8242 78.7723C71.9626 78.5122 72.0594 78.2107 72.1147 77.8676C72.1756 77.5245 72.2061 77.1509 72.2061 76.7469ZM75.6094 76.7552V76.5809C75.6094 75.9224 75.7035 75.3164 75.8916 74.7631C76.0798 74.2041 76.3537 73.7199 76.7134 73.3104C77.0731 72.9009 77.513 72.5827 78.0332 72.3558C78.5534 72.1234 79.1455 72.0072 79.8096 72.0072C80.4847 72.0072 81.0824 72.1234 81.6025 72.3558C82.1283 72.5827 82.571 72.9009 82.9307 73.3104C83.2904 73.7199 83.5643 74.2041 83.7524 74.7631C83.9406 75.3164 84.0347 75.9224 84.0347 76.5809V76.7552C84.0347 77.4082 83.9406 78.0142 83.7524 78.5731C83.5643 79.1265 83.2904 79.6107 82.9307 80.0258C82.571 80.4353 82.131 80.7535 81.6108 80.9803C81.0907 81.2072 80.4958 81.3207 79.8262 81.3207C79.1621 81.3207 78.5672 81.2072 78.0415 80.9803C77.5158 80.7535 77.0731 80.4353 76.7134 80.0258C76.3537 79.6107 76.0798 79.1265 75.8916 78.5731C75.7035 78.0142 75.6094 77.4082 75.6094 76.7552ZM77.8008 76.5809V76.7552C77.8008 77.1482 77.8395 77.5162 77.917 77.8593C77.9945 78.2024 78.1134 78.5039 78.2739 78.764C78.4344 79.0241 78.6419 79.2289 78.8965 79.3783C79.1566 79.5222 79.4665 79.5941 79.8262 79.5941C80.1803 79.5941 80.4847 79.5222 80.7393 79.3783C80.9938 79.2289 81.2013 79.0241 81.3618 78.764C81.5278 78.5039 81.6496 78.2024 81.7271 77.8593C81.8045 77.5162 81.8433 77.1482 81.8433 76.7552V76.5809C81.8433 76.1936 81.8045 75.8311 81.7271 75.4935C81.6496 75.1504 81.5278 74.8488 81.3618 74.5887C81.2013 74.3231 80.991 74.1156 80.731 73.9662C80.4764 73.8112 80.1693 73.7338 79.8096 73.7338C79.4554 73.7338 79.151 73.8112 78.8965 73.9662C78.6419 74.1156 78.4344 74.3231 78.2739 74.5887C78.1134 74.8488 77.9945 75.1504 77.917 75.4935C77.8395 75.8311 77.8008 76.1936 77.8008 76.5809ZM90.5757 79.2455V75.1034C90.5757 74.799 90.5231 74.5362 90.418 74.3148C90.3128 74.0935 90.1523 73.9219 89.9365 73.8002C89.7207 73.6784 89.4468 73.6176 89.1147 73.6176C88.8215 73.6176 88.5641 73.6674 88.3428 73.767C88.127 73.8666 87.9609 74.0077 87.8447 74.1903C87.7285 74.3674 87.6704 74.5721 87.6704 74.8046H85.4707C85.4707 74.4338 85.5592 74.0824 85.7363 73.7504C85.9134 73.4128 86.1652 73.114 86.4917 72.8539C86.8237 72.5883 87.2194 72.3807 87.6787 72.2313C88.1436 72.0819 88.6637 72.0072 89.2393 72.0072C89.9199 72.0072 90.5259 72.1234 91.0571 72.3558C91.5939 72.5827 92.0145 72.9258 92.3188 73.3851C92.6287 73.8444 92.7837 74.4227 92.7837 75.12V79.038C92.7837 79.4862 92.8114 79.8708 92.8667 80.1918C92.9276 80.5072 93.0161 80.7811 93.1323 81.0135V81.1547H90.8994C90.7943 80.9278 90.714 80.64 90.6587 80.2914C90.6034 79.9372 90.5757 79.5886 90.5757 79.2455ZM90.8828 75.6844L90.8994 76.9877H89.5132C89.1701 76.9877 88.8685 77.0236 88.6084 77.0956C88.3483 77.162 88.1353 77.2616 87.9692 77.3944C87.8032 77.5217 87.6787 77.6766 87.5957 77.8593C87.5127 78.0363 87.4712 78.2383 87.4712 78.4652C87.4712 78.6866 87.521 78.8858 87.6206 79.0629C87.7257 79.2399 87.8752 79.3811 88.0688 79.4862C88.2681 79.5858 88.5005 79.6356 88.7661 79.6356C89.1535 79.6356 89.491 79.5581 89.7788 79.4032C90.0666 79.2427 90.2907 79.049 90.4512 78.8221C90.6117 78.5953 90.6974 78.3794 90.7085 78.1747L91.3394 79.121C91.2619 79.3479 91.1457 79.5886 90.9907 79.8431C90.8358 80.0977 90.6366 80.3357 90.3931 80.557C90.1496 80.7784 89.8563 80.961 89.5132 81.1049C89.1701 81.2487 88.7716 81.3207 88.3179 81.3207C87.7368 81.3207 87.2166 81.2045 86.7573 80.972C86.298 80.7396 85.9355 80.4214 85.6699 80.0175C85.4043 79.6135 85.2715 79.1542 85.2715 78.6395C85.2715 78.1636 85.36 77.743 85.5371 77.3778C85.7142 77.0126 85.9771 76.7054 86.3257 76.4564C86.6743 76.2019 87.106 76.0109 87.6206 75.8837C88.1408 75.7509 88.7357 75.6844 89.4053 75.6844H90.8828ZM96.9507 74.0077V81.1547H94.7593V72.1732H96.8345L96.9507 74.0077ZM99.6816 72.1151L99.6484 74.1571C99.5267 74.135 99.3883 74.1184 99.2334 74.1073C99.084 74.0962 98.9429 74.0907 98.8101 74.0907C98.4725 74.0907 98.1764 74.1377 97.9219 74.2318C97.6673 74.3204 97.4543 74.4504 97.2827 74.6219C97.1167 74.7935 96.9894 75.0038 96.9009 75.2528C96.8123 75.4963 96.7625 75.773 96.7515 76.0829L96.2783 76.0248C96.2783 75.4548 96.3364 74.9263 96.4526 74.4393C96.5688 73.9524 96.7376 73.5262 96.959 73.161C97.1803 72.7958 97.457 72.5135 97.7891 72.3143C98.1266 72.1096 98.514 72.0072 98.9512 72.0072C99.0729 72.0072 99.203 72.0183 99.3413 72.0404C99.4852 72.057 99.5986 72.0819 99.6816 72.1151ZM106.106 79.2455V68.4047H108.314V81.1547H106.322L106.106 79.2455ZM100.337 76.7719V76.5975C100.337 75.9113 100.415 75.2888 100.57 74.7299C100.73 74.1654 100.963 73.6812 101.267 73.2772C101.571 72.8733 101.939 72.5606 102.371 72.3392C102.808 72.1179 103.304 72.0072 103.857 72.0072C104.394 72.0072 104.861 72.1151 105.26 72.3309C105.664 72.5468 106.007 72.8539 106.289 73.2523C106.577 73.6508 106.806 74.1239 106.978 74.6718C107.15 75.2141 107.274 75.8117 107.352 76.4647V76.9379C107.274 77.5743 107.15 78.1581 106.978 78.6893C106.806 79.2206 106.577 79.6854 106.289 80.0839C106.007 80.4768 105.664 80.7811 105.26 80.9969C104.856 81.2128 104.383 81.3207 103.84 81.3207C103.292 81.3207 102.8 81.2072 102.363 80.9803C101.931 80.7535 101.563 80.4353 101.259 80.0258C100.96 79.6163 100.73 79.1348 100.57 78.5814C100.415 78.028 100.337 77.4248 100.337 76.7719ZM102.537 76.5975V76.7719C102.537 77.1592 102.57 77.5217 102.637 77.8593C102.703 78.1968 102.811 78.4956 102.96 78.7557C103.11 79.0103 103.301 79.2095 103.533 79.3534C103.771 79.4973 104.059 79.5692 104.396 79.5692C104.828 79.5692 105.182 79.4751 105.459 79.287C105.741 79.0933 105.96 78.8304 106.115 78.4984C106.27 78.1608 106.369 77.7818 106.414 77.3612V76.058C106.391 75.726 106.333 75.4188 106.239 75.1366C106.151 74.8544 106.023 74.6109 105.857 74.4061C105.697 74.2014 105.498 74.0409 105.26 73.9247C105.022 73.8085 104.74 73.7504 104.413 73.7504C104.076 73.7504 103.788 73.8251 103.55 73.9745C103.312 74.1184 103.118 74.3204 102.969 74.5804C102.819 74.8405 102.709 75.1421 102.637 75.4852C102.57 75.8283 102.537 76.1991 102.537 76.5975Z" fill="black"/>
<path d="M31.3672 95.8319H29.0249L29.0122 94.848H31.1387C31.4899 94.848 31.7967 94.7888 32.0591 94.6703C32.3215 94.5518 32.5246 94.3825 32.6685 94.1625C32.8166 93.9382 32.8906 93.6716 32.8906 93.3627C32.8906 93.0241 32.825 92.7491 32.6938 92.5375C32.5669 92.3217 32.3701 92.1651 32.1035 92.0677C31.8411 91.9662 31.5068 91.9154 31.1006 91.9154H29.2979V100.155H28.0728V90.9125H31.1006C31.5745 90.9125 31.9977 90.9611 32.3701 91.0585C32.7425 91.1516 33.0578 91.2997 33.3159 91.5028C33.5783 91.7017 33.7772 91.9556 33.9126 92.2645C34.048 92.5734 34.1157 92.9437 34.1157 93.3754C34.1157 93.7562 34.0184 94.1011 33.8237 94.41C33.6291 94.7147 33.3582 94.9644 33.0112 95.1591C32.6685 95.3537 32.2664 95.4786 31.8052 95.5336L31.3672 95.8319ZM31.3101 100.155H28.5425L29.2344 99.1581H31.3101C31.6994 99.1581 32.0295 99.0904 32.3003 98.955C32.5754 98.8195 32.7848 98.6291 32.9287 98.3837C33.0726 98.134 33.1445 97.8399 33.1445 97.5013C33.1445 97.1586 33.0832 96.8623 32.9604 96.6127C32.8377 96.363 32.6452 96.1705 32.3828 96.035C32.1204 95.8996 31.7819 95.8319 31.3672 95.8319H29.6216L29.6343 94.848H32.021L32.2812 95.2035C32.7256 95.2416 33.1022 95.3685 33.4111 95.5844C33.7201 95.7959 33.9549 96.0668 34.1157 96.3969C34.2808 96.7269 34.3633 97.0909 34.3633 97.4886C34.3633 98.0642 34.2363 98.5508 33.9824 98.9486C33.7327 99.3422 33.3794 99.6426 32.9224 99.85C32.4653 100.053 31.9279 100.155 31.3101 100.155ZM40.1968 98.5677V93.2865H41.3774V100.155H40.2539L40.1968 98.5677ZM40.4189 97.1205L40.9077 97.1078C40.9077 97.5648 40.859 97.988 40.7617 98.3773C40.6686 98.7624 40.5163 99.0967 40.3047 99.3802C40.0931 99.6638 39.8159 99.8859 39.4731 100.047C39.1304 100.203 38.7135 100.282 38.2227 100.282C37.8883 100.282 37.5815 100.233 37.3022 100.136C37.0272 100.038 36.7902 99.8881 36.5913 99.6849C36.3924 99.4818 36.238 99.2173 36.1279 98.8915C36.0221 98.5656 35.9692 98.1742 35.9692 97.7172V93.2865H37.1436V97.7299C37.1436 98.0388 37.1774 98.2948 37.2451 98.4979C37.3171 98.6968 37.4123 98.8555 37.5308 98.974C37.6535 99.0883 37.7889 99.1687 37.937 99.2152C38.0894 99.2618 38.2459 99.285 38.4067 99.285C38.9061 99.285 39.3018 99.1898 39.5938 98.9994C39.8857 98.8047 40.0952 98.5445 40.2222 98.2186C40.3534 97.8885 40.4189 97.5225 40.4189 97.1205ZM47.1665 98.3329C47.1665 98.1636 47.1284 98.007 47.0522 97.8632C46.9803 97.715 46.8301 97.5817 46.6016 97.4633C46.3773 97.3405 46.0387 97.2347 45.5859 97.1459C45.2051 97.0655 44.8602 96.9703 44.5513 96.8602C44.2466 96.7502 43.9863 96.6169 43.7705 96.4603C43.5589 96.3038 43.396 96.1197 43.2817 95.9081C43.1675 95.6965 43.1104 95.4489 43.1104 95.1654C43.1104 94.8946 43.1696 94.6385 43.2881 94.3973C43.4108 94.1561 43.5822 93.9424 43.8022 93.7562C44.0265 93.57 44.2952 93.424 44.6084 93.3182C44.9215 93.2124 45.2707 93.1595 45.6558 93.1595C46.2059 93.1595 46.6756 93.2569 47.0649 93.4515C47.4543 93.6462 47.7526 93.9065 47.96 94.2323C48.1673 94.5539 48.271 94.9115 48.271 95.3051H47.0967C47.0967 95.1146 47.0396 94.9305 46.9253 94.7528C46.8153 94.5708 46.6523 94.4206 46.4365 94.3021C46.2249 94.1836 45.9647 94.1244 45.6558 94.1244C45.3299 94.1244 45.0654 94.1752 44.8623 94.2767C44.6634 94.3741 44.5174 94.4989 44.4243 94.6512C44.3354 94.8036 44.291 94.9644 44.291 95.1337C44.291 95.2606 44.3122 95.3749 44.3545 95.4764C44.401 95.5738 44.4814 95.6648 44.5957 95.7494C44.71 95.8298 44.8708 95.906 45.0781 95.9779C45.2855 96.0498 45.55 96.1218 45.8716 96.1937C46.4344 96.3207 46.8978 96.473 47.2617 96.6508C47.6257 96.8285 47.8965 97.0464 48.0742 97.3046C48.252 97.5627 48.3408 97.8759 48.3408 98.244C48.3408 98.5445 48.2773 98.8195 48.1504 99.0692C48.0277 99.3189 47.8478 99.5347 47.6108 99.7167C47.3781 99.8944 47.0988 100.034 46.7729 100.136C46.4513 100.233 46.0895 100.282 45.6875 100.282C45.0824 100.282 44.5703 100.174 44.1514 99.9579C43.7324 99.7421 43.415 99.4628 43.1992 99.12C42.9834 98.7772 42.8755 98.4154 42.8755 98.0345H44.0562C44.0731 98.3562 44.1662 98.6122 44.3354 98.8026C44.5047 98.9888 44.7121 99.1221 44.9575 99.2025C45.203 99.2787 45.4463 99.3168 45.6875 99.3168C46.0091 99.3168 46.2778 99.2745 46.4937 99.1898C46.7137 99.1052 46.8809 98.9888 46.9951 98.8407C47.1094 98.6926 47.1665 98.5233 47.1665 98.3329ZM51.1592 93.2865V100.155H49.9785V93.2865H51.1592ZM49.8896 91.4647C49.8896 91.2743 49.9468 91.1135 50.061 90.9823C50.1795 90.8511 50.353 90.7855 50.5815 90.7855C50.8058 90.7855 50.9772 90.8511 51.0957 90.9823C51.2184 91.1135 51.2798 91.2743 51.2798 91.4647C51.2798 91.6467 51.2184 91.8033 51.0957 91.9344C50.9772 92.0614 50.8058 92.1249 50.5815 92.1249C50.353 92.1249 50.1795 92.0614 50.061 91.9344C49.9468 91.8033 49.8896 91.6467 49.8896 91.4647ZM54.2188 94.7528V100.155H53.0444V93.2865H54.1553L54.2188 94.7528ZM53.9395 96.4603L53.4507 96.4413C53.4549 95.9716 53.5247 95.5378 53.6602 95.14C53.7956 94.738 53.986 94.3889 54.2314 94.0927C54.4769 93.7964 54.7689 93.5679 55.1074 93.4071C55.4502 93.2421 55.8289 93.1595 56.2437 93.1595C56.5822 93.1595 56.8869 93.2061 57.1577 93.2992C57.4285 93.3881 57.6592 93.5319 57.8496 93.7308C58.0443 93.9297 58.1924 94.1879 58.2939 94.5052C58.3955 94.8184 58.4463 95.2014 58.4463 95.6542V100.155H57.2656V95.6415C57.2656 95.2818 57.2127 94.994 57.1069 94.7782C57.0011 94.5581 56.8467 94.3995 56.6436 94.3021C56.4404 94.2006 56.1908 94.1498 55.8945 94.1498C55.6025 94.1498 55.3359 94.2111 55.0947 94.3339C54.8577 94.4566 54.6525 94.6259 54.479 94.8417C54.3097 95.0575 54.1764 95.3051 54.0791 95.5844C53.986 95.8594 53.9395 96.1514 53.9395 96.4603ZM63.0801 100.282C62.6019 100.282 62.1681 100.201 61.7788 100.04C61.3937 99.8754 61.0615 99.6447 60.7822 99.3485C60.5072 99.0523 60.2956 98.701 60.1475 98.2948C59.9993 97.8885 59.9253 97.4442 59.9253 96.9618V96.6952C59.9253 96.1366 60.0078 95.6394 60.1729 95.2035C60.3379 94.7634 60.5622 94.391 60.8457 94.0863C61.1292 93.7816 61.4508 93.551 61.8105 93.3944C62.1702 93.2378 62.5426 93.1595 62.9277 93.1595C63.4186 93.1595 63.8418 93.2442 64.1973 93.4135C64.557 93.5827 64.8511 93.8197 65.0796 94.1244C65.3081 94.4248 65.4774 94.7803 65.5874 95.1908C65.6974 95.597 65.7524 96.0414 65.7524 96.5238V97.0507H60.6235V96.0922H64.5781V96.0033C64.5612 95.6986 64.4977 95.4024 64.3877 95.1146C64.2819 94.8269 64.1126 94.5899 63.8799 94.4037C63.6471 94.2175 63.3298 94.1244 62.9277 94.1244C62.6611 94.1244 62.4157 94.1815 62.1914 94.2958C61.9671 94.4058 61.7746 94.5708 61.6138 94.7909C61.453 95.0109 61.3281 95.2797 61.2393 95.597C61.1504 95.9144 61.106 96.2805 61.106 96.6952V96.9618C61.106 97.2876 61.1504 97.5944 61.2393 97.8822C61.3324 98.1657 61.4657 98.4154 61.6392 98.6312C61.8169 98.847 62.0306 99.0163 62.2803 99.139C62.5342 99.2618 62.8219 99.3231 63.1436 99.3231C63.5583 99.3231 63.9095 99.2385 64.1973 99.0692C64.485 98.8999 64.7368 98.6735 64.9526 98.39L65.6636 98.955C65.5155 99.1792 65.3271 99.3929 65.0986 99.5961C64.8701 99.7992 64.5887 99.9642 64.2544 100.091C63.9243 100.218 63.5329 100.282 63.0801 100.282ZM71.1226 98.3329C71.1226 98.1636 71.0845 98.007 71.0083 97.8632C70.9364 97.715 70.7861 97.5817 70.5576 97.4633C70.3333 97.3405 69.9948 97.2347 69.542 97.1459C69.1611 97.0655 68.8162 96.9703 68.5073 96.8602C68.2026 96.7502 67.9424 96.6169 67.7266 96.4603C67.515 96.3038 67.3521 96.1197 67.2378 95.9081C67.1235 95.6965 67.0664 95.4489 67.0664 95.1654C67.0664 94.8946 67.1257 94.6385 67.2441 94.3973C67.3669 94.1561 67.5382 93.9424 67.7583 93.7562C67.9826 93.57 68.2513 93.424 68.5645 93.3182C68.8776 93.2124 69.2267 93.1595 69.6118 93.1595C70.1619 93.1595 70.6317 93.2569 71.021 93.4515C71.4103 93.6462 71.7087 93.9065 71.916 94.2323C72.1234 94.5539 72.2271 94.9115 72.2271 95.3051H71.0527C71.0527 95.1146 70.9956 94.9305 70.8813 94.7528C70.7713 94.5708 70.6084 94.4206 70.3926 94.3021C70.181 94.1836 69.9207 94.1244 69.6118 94.1244C69.286 94.1244 69.0215 94.1752 68.8184 94.2767C68.6195 94.3741 68.4735 94.4989 68.3804 94.6512C68.2915 94.8036 68.2471 94.9644 68.2471 95.1337C68.2471 95.2606 68.2682 95.3749 68.3105 95.4764C68.3571 95.5738 68.4375 95.6648 68.5518 95.7494C68.666 95.8298 68.8268 95.906 69.0342 95.9779C69.2415 96.0498 69.506 96.1218 69.8276 96.1937C70.3905 96.3207 70.8538 96.473 71.2178 96.6508C71.5817 96.8285 71.8525 97.0464 72.0303 97.3046C72.208 97.5627 72.2969 97.8759 72.2969 98.244C72.2969 98.5445 72.2334 98.8195 72.1064 99.0692C71.9837 99.3189 71.8039 99.5347 71.5669 99.7167C71.3341 99.8944 71.0549 100.034 70.729 100.136C70.4074 100.233 70.0456 100.282 69.6436 100.282C69.0384 100.282 68.5264 100.174 68.1074 99.9579C67.6885 99.7421 67.3711 99.4628 67.1553 99.12C66.9395 98.7772 66.8315 98.4154 66.8315 98.0345H68.0122C68.0291 98.3562 68.1222 98.6122 68.2915 98.8026C68.4608 98.9888 68.6681 99.1221 68.9136 99.2025C69.159 99.2787 69.4023 99.3168 69.6436 99.3168C69.9652 99.3168 70.2339 99.2745 70.4497 99.1898C70.6698 99.1052 70.8369 98.9888 70.9512 98.8407C71.0654 98.6926 71.1226 98.5233 71.1226 98.3329ZM77.8384 98.3329C77.8384 98.1636 77.8003 98.007 77.7241 97.8632C77.6522 97.715 77.502 97.5817 77.2734 97.4633C77.0492 97.3405 76.7106 97.2347 76.2578 97.1459C75.877 97.0655 75.5321 96.9703 75.2231 96.8602C74.9185 96.7502 74.6582 96.6169 74.4424 96.4603C74.2308 96.3038 74.0679 96.1197 73.9536 95.9081C73.8394 95.6965 73.7822 95.4489 73.7822 95.1654C73.7822 94.8946 73.8415 94.6385 73.96 94.3973C74.0827 94.1561 74.2541 93.9424 74.4741 93.7562C74.6984 93.57 74.9671 93.424 75.2803 93.3182C75.5934 93.2124 75.9425 93.1595 76.3276 93.1595C76.8778 93.1595 77.3475 93.2569 77.7368 93.4515C78.1261 93.6462 78.4245 93.9065 78.6318 94.2323C78.8392 94.5539 78.9429 94.9115 78.9429 95.3051H77.7686C77.7686 95.1146 77.7114 94.9305 77.5972 94.7528C77.4871 94.5708 77.3242 94.4206 77.1084 94.3021C76.8968 94.1836 76.6366 94.1244 76.3276 94.1244C76.0018 94.1244 75.7373 94.1752 75.5342 94.2767C75.3353 94.3741 75.1893 94.4989 75.0962 94.6512C75.0073 94.8036 74.9629 94.9644 74.9629 95.1337C74.9629 95.2606 74.984 95.3749 75.0264 95.4764C75.0729 95.5738 75.1533 95.6648 75.2676 95.7494C75.3818 95.8298 75.5426 95.906 75.75 95.9779C75.9574 96.0498 76.2218 96.1218 76.5435 96.1937C77.1063 96.3207 77.5697 96.473 77.9336 96.6508C78.2975 96.8285 78.5684 97.0464 78.7461 97.3046C78.9238 97.5627 79.0127 97.8759 79.0127 98.244C79.0127 98.5445 78.9492 98.8195 78.8223 99.0692C78.6995 99.3189 78.5197 99.5347 78.2827 99.7167C78.05 99.8944 77.7707 100.034 77.4448 100.136C77.1232 100.233 76.7614 100.282 76.3594 100.282C75.7542 100.282 75.2422 100.174 74.8232 99.9579C74.4043 99.7421 74.0869 99.4628 73.8711 99.12C73.6553 98.7772 73.5474 98.4154 73.5474 98.0345H74.728C74.745 98.3562 74.8381 98.6122 75.0073 98.8026C75.1766 98.9888 75.384 99.1221 75.6294 99.2025C75.8748 99.2787 76.1182 99.3168 76.3594 99.3168C76.681 99.3168 76.9497 99.2745 77.1655 99.1898C77.3856 99.1052 77.5527 98.9888 77.667 98.8407C77.7812 98.6926 77.8384 98.5233 77.8384 98.3329ZM84.9478 94.6512V100.155H83.7671V93.2865H84.8843L84.9478 94.6512ZM84.7065 96.4603L84.1606 96.4413C84.1649 95.9716 84.2262 95.5378 84.3447 95.14C84.4632 94.738 84.6388 94.3889 84.8716 94.0927C85.1043 93.7964 85.3942 93.5679 85.7412 93.4071C86.0882 93.2421 86.4902 93.1595 86.9473 93.1595C87.2689 93.1595 87.5651 93.2061 87.8359 93.2992C88.1068 93.3881 88.3416 93.5298 88.5405 93.7245C88.7394 93.9191 88.8939 94.1688 89.0039 94.4735C89.1139 94.7782 89.1689 95.1464 89.1689 95.578V100.155H87.9946V95.6351C87.9946 95.2754 87.9333 94.9877 87.8105 94.7719C87.6921 94.556 87.5228 94.3995 87.3027 94.3021C87.0827 94.2006 86.8245 94.1498 86.5283 94.1498C86.1813 94.1498 85.8914 94.2111 85.6587 94.3339C85.4259 94.4566 85.2397 94.6259 85.1001 94.8417C84.9604 95.0575 84.8589 95.3051 84.7954 95.5844C84.7362 95.8594 84.7065 96.1514 84.7065 96.4603ZM89.1562 95.8129L88.3691 96.0541C88.3734 95.6774 88.4347 95.3156 88.5532 94.9686C88.6759 94.6216 88.8516 94.3127 89.0801 94.0419C89.3128 93.771 89.5985 93.5573 89.937 93.4008C90.2756 93.2399 90.6628 93.1595 91.0986 93.1595C91.4668 93.1595 91.7926 93.2082 92.0762 93.3055C92.3639 93.4029 92.6051 93.5531 92.7998 93.7562C92.9987 93.9551 93.1489 94.2111 93.2505 94.5243C93.3521 94.8374 93.4028 95.2098 93.4028 95.6415V100.155H92.2222V95.6288C92.2222 95.2437 92.1608 94.9454 92.0381 94.7338C91.9196 94.5179 91.7503 94.3677 91.5303 94.2831C91.3145 94.1942 91.0563 94.1498 90.7559 94.1498C90.4977 94.1498 90.2692 94.1942 90.0703 94.2831C89.8714 94.3719 89.7043 94.4947 89.5688 94.6512C89.4334 94.8036 89.3298 94.9792 89.2578 95.1781C89.1901 95.377 89.1562 95.5886 89.1562 95.8129ZM99.23 98.9803V95.4447C99.23 95.1739 99.175 94.939 99.0649 94.7401C98.9591 94.537 98.7983 94.3804 98.5825 94.2704C98.3667 94.1604 98.1001 94.1053 97.7827 94.1053C97.4865 94.1053 97.2262 94.1561 97.002 94.2577C96.7819 94.3593 96.6084 94.4926 96.4814 94.6576C96.3587 94.8226 96.2974 95.0004 96.2974 95.1908H95.123C95.123 94.9454 95.1865 94.702 95.3135 94.4608C95.4404 94.2196 95.6224 94.0017 95.8594 93.807C96.1006 93.6081 96.3883 93.4515 96.7227 93.3373C97.0612 93.2188 97.4378 93.1595 97.8525 93.1595C98.3519 93.1595 98.792 93.2442 99.1729 93.4135C99.5579 93.5827 99.8584 93.8387 100.074 94.1815C100.294 94.5201 100.404 94.9454 100.404 95.4574V98.6566C100.404 98.8851 100.423 99.1285 100.461 99.3866C100.504 99.6447 100.565 99.8669 100.646 100.053V100.155H99.4204C99.3612 100.019 99.3146 99.8394 99.2808 99.6151C99.2469 99.3866 99.23 99.175 99.23 98.9803ZM99.4331 95.9906L99.4458 96.8158H98.2588C97.9245 96.8158 97.6261 96.8433 97.3638 96.8983C97.1014 96.9491 96.8813 97.0274 96.7036 97.1332C96.5259 97.239 96.3905 97.3723 96.2974 97.5331C96.2043 97.6897 96.1577 97.8737 96.1577 98.0853C96.1577 98.3011 96.2064 98.4979 96.3037 98.6757C96.401 98.8534 96.547 98.9952 96.7417 99.101C96.9406 99.2025 97.1839 99.2533 97.4717 99.2533C97.8314 99.2533 98.1488 99.1771 98.4238 99.0248C98.6989 98.8724 98.9168 98.6862 99.0776 98.4662C99.2427 98.2461 99.3315 98.0324 99.3442 97.8251L99.8457 98.39C99.8161 98.5677 99.7357 98.7645 99.6045 98.9803C99.4733 99.1962 99.2977 99.4035 99.0776 99.6024C98.8618 99.7971 98.6037 99.96 98.3032 100.091C98.007 100.218 97.6727 100.282 97.3003 100.282C96.8348 100.282 96.4264 100.191 96.0752 100.009C95.7282 99.8267 95.4574 99.5834 95.2627 99.2787C95.0723 98.9698 94.9771 98.6249 94.9771 98.244C94.9771 97.8759 95.049 97.5521 95.1929 97.2728C95.3368 96.9893 95.5441 96.7544 95.8149 96.5682C96.0858 96.3778 96.4116 96.2339 96.7925 96.1366C97.1733 96.0393 97.5986 95.9906 98.0684 95.9906H99.4331ZM103.426 94.7528V100.155H102.251V93.2865H103.362L103.426 94.7528ZM103.146 96.4603L102.658 96.4413C102.662 95.9716 102.732 95.5378 102.867 95.14C103.003 94.738 103.193 94.3889 103.438 94.0927C103.684 93.7964 103.976 93.5679 104.314 93.4071C104.657 93.2421 105.036 93.1595 105.451 93.1595C105.789 93.1595 106.094 93.2061 106.365 93.2992C106.636 93.3881 106.866 93.5319 107.057 93.7308C107.251 93.9297 107.399 94.1879 107.501 94.5052C107.603 94.8184 107.653 95.2014 107.653 95.6542V100.155H106.473V95.6415C106.473 95.2818 106.42 94.994 106.314 94.7782C106.208 94.5581 106.054 94.3995 105.851 94.3021C105.647 94.2006 105.398 94.1498 105.102 94.1498C104.81 94.1498 104.543 94.2111 104.302 94.3339C104.065 94.4566 103.86 94.6259 103.686 94.8417C103.517 95.0575 103.383 95.3051 103.286 95.5844C103.193 95.8594 103.146 96.1514 103.146 96.4603ZM113.487 98.9803V95.4447C113.487 95.1739 113.432 94.939 113.322 94.7401C113.216 94.537 113.055 94.3804 112.839 94.2704C112.624 94.1604 112.357 94.1053 112.04 94.1053C111.743 94.1053 111.483 94.1561 111.259 94.2577C111.039 94.3593 110.865 94.4926 110.738 94.6576C110.616 94.8226 110.554 95.0004 110.554 95.1908H109.38C109.38 94.9454 109.443 94.702 109.57 94.4608C109.697 94.2196 109.879 94.0017 110.116 93.807C110.357 93.6081 110.645 93.4515 110.979 93.3373C111.318 93.2188 111.695 93.1595 112.109 93.1595C112.609 93.1595 113.049 93.2442 113.43 93.4135C113.815 93.5827 114.115 93.8387 114.331 94.1815C114.551 94.5201 114.661 94.9454 114.661 95.4574V98.6566C114.661 98.8851 114.68 99.1285 114.718 99.3866C114.761 99.6447 114.822 99.8669 114.902 100.053V100.155H113.677C113.618 100.019 113.571 99.8394 113.538 99.6151C113.504 99.3866 113.487 99.175 113.487 98.9803ZM113.69 95.9906L113.703 96.8158H112.516C112.181 96.8158 111.883 96.8433 111.621 96.8983C111.358 96.9491 111.138 97.0274 110.96 97.1332C110.783 97.239 110.647 97.3723 110.554 97.5331C110.461 97.6897 110.415 97.8737 110.415 98.0853C110.415 98.3011 110.463 98.4979 110.561 98.6757C110.658 98.8534 110.804 98.9952 110.999 99.101C111.197 99.2025 111.441 99.2533 111.729 99.2533C112.088 99.2533 112.406 99.1771 112.681 99.0248C112.956 98.8724 113.174 98.6862 113.334 98.4662C113.5 98.2461 113.588 98.0324 113.601 97.8251L114.103 98.39C114.073 98.5677 113.993 98.7645 113.861 98.9803C113.73 99.1962 113.555 99.4035 113.334 99.6024C113.119 99.7971 112.861 99.96 112.56 100.091C112.264 100.218 111.93 100.282 111.557 100.282C111.092 100.282 110.683 100.191 110.332 100.009C109.985 99.8267 109.714 99.5834 109.52 99.2787C109.329 98.9698 109.234 98.6249 109.234 98.244C109.234 97.8759 109.306 97.5521 109.45 97.2728C109.594 96.9893 109.801 96.7544 110.072 96.5682C110.343 96.3778 110.668 96.2339 111.049 96.1366C111.43 96.0393 111.855 95.9906 112.325 95.9906H113.69ZM120.958 93.2865H122.024V100.009C122.024 100.614 121.902 101.13 121.656 101.557C121.411 101.985 121.068 102.309 120.628 102.529C120.192 102.753 119.688 102.865 119.117 102.865C118.88 102.865 118.601 102.827 118.279 102.751C117.962 102.679 117.649 102.554 117.34 102.376C117.035 102.203 116.779 101.968 116.572 101.672L117.188 100.974C117.475 101.321 117.776 101.562 118.089 101.697C118.406 101.833 118.719 101.9 119.028 101.9C119.401 101.9 119.722 101.83 119.993 101.691C120.264 101.551 120.473 101.344 120.622 101.069C120.774 100.798 120.85 100.464 120.85 100.066V94.7972L120.958 93.2865ZM116.229 96.7968V96.6635C116.229 96.1387 116.29 95.6626 116.413 95.2352C116.54 94.8036 116.72 94.4333 116.953 94.1244C117.19 93.8155 117.475 93.5785 117.81 93.4135C118.144 93.2442 118.521 93.1595 118.939 93.1595C119.371 93.1595 119.748 93.2357 120.069 93.3881C120.395 93.5362 120.67 93.7541 120.895 94.0419C121.123 94.3254 121.303 94.6682 121.434 95.0702C121.565 95.4722 121.656 95.9271 121.707 96.4349V97.0189C121.66 97.5225 121.569 97.9753 121.434 98.3773C121.303 98.7793 121.123 99.1221 120.895 99.4056C120.67 99.6892 120.395 99.9071 120.069 100.059C119.743 100.208 119.363 100.282 118.927 100.282C118.516 100.282 118.144 100.195 117.81 100.021C117.479 99.8479 117.196 99.6045 116.959 99.2914C116.722 98.9782 116.54 98.6101 116.413 98.1869C116.29 97.7595 116.229 97.2961 116.229 96.7968ZM117.403 96.6635V96.7968C117.403 97.1395 117.437 97.4611 117.505 97.7616C117.577 98.0621 117.685 98.3265 117.829 98.5551C117.977 98.7836 118.165 98.9634 118.394 99.0946C118.622 99.2216 118.895 99.285 119.212 99.285C119.602 99.285 119.923 99.2025 120.177 99.0375C120.431 98.8724 120.632 98.6545 120.78 98.3837C120.933 98.1128 121.051 97.8187 121.136 97.5013V95.9716C121.089 95.7388 121.017 95.5145 120.92 95.2987C120.827 95.0787 120.704 94.884 120.552 94.7147C120.404 94.5412 120.22 94.4037 120 94.3021C119.779 94.2006 119.521 94.1498 119.225 94.1498C118.903 94.1498 118.626 94.2175 118.394 94.3529C118.165 94.4841 117.977 94.6661 117.829 94.8988C117.685 95.1273 117.577 95.3939 117.505 95.6986C117.437 95.9991 117.403 96.3207 117.403 96.6635ZM126.658 100.282C126.18 100.282 125.746 100.201 125.357 100.04C124.972 99.8754 124.64 99.6447 124.36 99.3485C124.085 99.0523 123.874 98.701 123.726 98.2948C123.577 97.8885 123.503 97.4442 123.503 96.9618V96.6952C123.503 96.1366 123.586 95.6394 123.751 95.2035C123.916 94.7634 124.14 94.391 124.424 94.0863C124.707 93.7816 125.029 93.551 125.389 93.3944C125.748 93.2378 126.121 93.1595 126.506 93.1595C126.997 93.1595 127.42 93.2442 127.775 93.4135C128.135 93.5827 128.429 93.8197 128.658 94.1244C128.886 94.4248 129.056 94.7803 129.166 95.1908C129.276 95.597 129.331 96.0414 129.331 96.5238V97.0507H124.202V96.0922H128.156V96.0033C128.139 95.6986 128.076 95.4024 127.966 95.1146C127.86 94.8269 127.691 94.5899 127.458 94.4037C127.225 94.2175 126.908 94.1244 126.506 94.1244C126.239 94.1244 125.994 94.1815 125.77 94.2958C125.545 94.4058 125.353 94.5708 125.192 94.7909C125.031 95.0109 124.906 95.2797 124.817 95.597C124.729 95.9144 124.684 96.2805 124.684 96.6952V96.9618C124.684 97.2876 124.729 97.5944 124.817 97.8822C124.91 98.1657 125.044 98.4154 125.217 98.6312C125.395 98.847 125.609 99.0163 125.858 99.139C126.112 99.2618 126.4 99.3231 126.722 99.3231C127.136 99.3231 127.488 99.2385 127.775 99.0692C128.063 98.8999 128.315 98.6735 128.531 98.39L129.242 98.955C129.094 99.1792 128.905 99.3929 128.677 99.5961C128.448 99.7992 128.167 99.9642 127.833 100.091C127.502 100.218 127.111 100.282 126.658 100.282ZM131.87 94.6512V100.155H130.689V93.2865H131.806L131.87 94.6512ZM131.628 96.4603L131.083 96.4413C131.087 95.9716 131.148 95.5378 131.267 95.14C131.385 94.738 131.561 94.3889 131.793 94.0927C132.026 93.7964 132.316 93.5679 132.663 93.4071C133.01 93.2421 133.412 93.1595 133.869 93.1595C134.191 93.1595 134.487 93.2061 134.758 93.2992C135.029 93.3881 135.264 93.5298 135.462 93.7245C135.661 93.9191 135.816 94.1688 135.926 94.4735C136.036 94.7782 136.091 95.1464 136.091 95.578V100.155H134.917V95.6351C134.917 95.2754 134.855 94.9877 134.732 94.7719C134.614 94.556 134.445 94.3995 134.225 94.3021C134.005 94.2006 133.746 94.1498 133.45 94.1498C133.103 94.1498 132.813 94.2111 132.581 94.3339C132.348 94.4566 132.162 94.6259 132.022 94.8417C131.882 95.0575 131.781 95.3051 131.717 95.5844C131.658 95.8594 131.628 96.1514 131.628 96.4603ZM136.078 95.8129L135.291 96.0541C135.295 95.6774 135.357 95.3156 135.475 94.9686C135.598 94.6216 135.773 94.3127 136.002 94.0419C136.235 93.771 136.52 93.5573 136.859 93.4008C137.197 93.2399 137.585 93.1595 138.021 93.1595C138.389 93.1595 138.715 93.2082 138.998 93.3055C139.286 93.4029 139.527 93.5531 139.722 93.7562C139.921 93.9551 140.071 94.2111 140.172 94.5243C140.274 94.8374 140.325 95.2098 140.325 95.6415V100.155H139.144V95.6288C139.144 95.2437 139.083 94.9454 138.96 94.7338C138.841 94.5179 138.672 94.3677 138.452 94.2831C138.236 94.1942 137.978 94.1498 137.678 94.1498C137.42 94.1498 137.191 94.1942 136.992 94.2831C136.793 94.3719 136.626 94.4947 136.491 94.6512C136.355 94.8036 136.252 94.9792 136.18 95.1781C136.112 95.377 136.078 95.5886 136.078 95.8129ZM144.952 100.282C144.474 100.282 144.04 100.201 143.651 100.04C143.266 99.8754 142.934 99.6447 142.654 99.3485C142.379 99.0523 142.168 98.701 142.02 98.2948C141.871 97.8885 141.797 97.4442 141.797 96.9618V96.6952C141.797 96.1366 141.88 95.6394 142.045 95.2035C142.21 94.7634 142.434 94.391 142.718 94.0863C143.001 93.7816 143.323 93.551 143.683 93.3944C144.042 93.2378 144.415 93.1595 144.8 93.1595C145.291 93.1595 145.714 93.2442 146.069 93.4135C146.429 93.5827 146.723 93.8197 146.952 94.1244C147.18 94.4248 147.349 94.7803 147.459 95.1908C147.569 95.597 147.625 96.0414 147.625 96.5238V97.0507H142.496V96.0922H146.45V96.0033C146.433 95.6986 146.37 95.4024 146.26 95.1146C146.154 94.8269 145.985 94.5899 145.752 94.4037C145.519 94.2175 145.202 94.1244 144.8 94.1244C144.533 94.1244 144.288 94.1815 144.063 94.2958C143.839 94.4058 143.647 94.5708 143.486 94.7909C143.325 95.0109 143.2 95.2797 143.111 95.597C143.022 95.9144 142.978 96.2805 142.978 96.6952V96.9618C142.978 97.2876 143.022 97.5944 143.111 97.8822C143.204 98.1657 143.338 98.4154 143.511 98.6312C143.689 98.847 143.903 99.0163 144.152 99.139C144.406 99.2618 144.694 99.3231 145.016 99.3231C145.43 99.3231 145.782 99.2385 146.069 99.0692C146.357 98.8999 146.609 98.6735 146.825 98.39L147.536 98.955C147.388 99.1792 147.199 99.3929 146.971 99.5961C146.742 99.7992 146.461 99.9642 146.126 100.091C145.796 100.218 145.405 100.282 144.952 100.282ZM150.17 94.7528V100.155H148.996V93.2865H150.106L150.17 94.7528ZM149.891 96.4603L149.402 96.4413C149.406 95.9716 149.476 95.5378 149.611 95.14C149.747 94.738 149.937 94.3889 150.183 94.0927C150.428 93.7964 150.72 93.5679 151.059 93.4071C151.401 93.2421 151.78 93.1595 152.195 93.1595C152.533 93.1595 152.838 93.2061 153.109 93.2992C153.38 93.3881 153.61 93.5319 153.801 93.7308C153.995 93.9297 154.144 94.1879 154.245 94.5052C154.347 94.8184 154.397 95.2014 154.397 95.6542V100.155H153.217V95.6415C153.217 95.2818 153.164 94.994 153.058 94.7782C152.952 94.5581 152.798 94.3995 152.595 94.3021C152.392 94.2006 152.142 94.1498 151.846 94.1498C151.554 94.1498 151.287 94.2111 151.046 94.3339C150.809 94.4566 150.604 94.6259 150.43 94.8417C150.261 95.0575 150.128 95.3051 150.03 95.5844C149.937 95.8594 149.891 96.1514 149.891 96.4603ZM159.057 93.2865V94.1879H155.343V93.2865H159.057ZM156.6 91.6171H157.774V98.4535C157.774 98.6862 157.81 98.8619 157.882 98.9803C157.954 99.0988 158.047 99.1771 158.162 99.2152C158.276 99.2533 158.399 99.2723 158.53 99.2723C158.627 99.2723 158.729 99.2639 158.834 99.2469C158.944 99.2258 159.027 99.2089 159.082 99.1962L159.088 100.155C158.995 100.184 158.873 100.212 158.72 100.237C158.572 100.267 158.392 100.282 158.181 100.282C157.893 100.282 157.628 100.224 157.387 100.11C157.146 99.996 156.953 99.8055 156.81 99.5389C156.67 99.2681 156.6 98.9042 156.6 98.4471V91.6171ZM167.658 98.3329C167.658 98.1636 167.62 98.007 167.543 97.8632C167.472 97.715 167.321 97.5817 167.093 97.4633C166.868 97.3405 166.53 97.2347 166.077 97.1459C165.696 97.0655 165.351 96.9703 165.042 96.8602C164.738 96.7502 164.478 96.6169 164.262 96.4603C164.05 96.3038 163.887 96.1197 163.773 95.9081C163.659 95.6965 163.602 95.4489 163.602 95.1654C163.602 94.8946 163.661 94.6385 163.779 94.3973C163.902 94.1561 164.073 93.9424 164.293 93.7562C164.518 93.57 164.786 93.424 165.1 93.3182C165.413 93.2124 165.762 93.1595 166.147 93.1595C166.697 93.1595 167.167 93.2569 167.556 93.4515C167.945 93.6462 168.244 93.9065 168.451 94.2323C168.659 94.5539 168.762 94.9115 168.762 95.3051H167.588C167.588 95.1146 167.531 94.9305 167.417 94.7528C167.306 94.5708 167.144 94.4206 166.928 94.3021C166.716 94.1836 166.456 94.1244 166.147 94.1244C165.821 94.1244 165.557 94.1752 165.354 94.2767C165.155 94.3741 165.009 94.4989 164.916 94.6512C164.827 94.8036 164.782 94.9644 164.782 95.1337C164.782 95.2606 164.803 95.3749 164.846 95.4764C164.892 95.5738 164.973 95.6648 165.087 95.7494C165.201 95.8298 165.362 95.906 165.569 95.9779C165.777 96.0498 166.041 96.1218 166.363 96.1937C166.926 96.3207 167.389 96.473 167.753 96.6508C168.117 96.8285 168.388 97.0464 168.565 97.3046C168.743 97.5627 168.832 97.8759 168.832 98.244C168.832 98.5445 168.769 98.8195 168.642 99.0692C168.519 99.3189 168.339 99.5347 168.102 99.7167C167.869 99.8944 167.59 100.034 167.264 100.136C166.943 100.233 166.581 100.282 166.179 100.282C165.574 100.282 165.062 100.174 164.643 99.9579C164.224 99.7421 163.906 99.4628 163.69 99.12C163.475 98.7772 163.367 98.4154 163.367 98.0345H164.547C164.564 98.3562 164.657 98.6122 164.827 98.8026C164.996 98.9888 165.203 99.1221 165.449 99.2025C165.694 99.2787 165.938 99.3168 166.179 99.3168C166.5 99.3168 166.769 99.2745 166.985 99.1898C167.205 99.1052 167.372 98.9888 167.486 98.8407C167.601 98.6926 167.658 98.5233 167.658 98.3329ZM173.225 100.282C172.746 100.282 172.313 100.201 171.923 100.04C171.538 99.8754 171.206 99.6447 170.927 99.3485C170.652 99.0523 170.44 98.701 170.292 98.2948C170.144 97.8885 170.07 97.4442 170.07 96.9618V96.6952C170.07 96.1366 170.152 95.6394 170.317 95.2035C170.482 94.7634 170.707 94.391 170.99 94.0863C171.274 93.7816 171.595 93.551 171.955 93.3944C172.315 93.2378 172.687 93.1595 173.072 93.1595C173.563 93.1595 173.986 93.2442 174.342 93.4135C174.701 93.5827 174.996 93.8197 175.224 94.1244C175.453 94.4248 175.622 94.7803 175.732 95.1908C175.842 95.597 175.897 96.0414 175.897 96.5238V97.0507H170.768V96.0922H174.723V96.0033C174.706 95.6986 174.642 95.4024 174.532 95.1146C174.426 94.8269 174.257 94.5899 174.024 94.4037C173.792 94.2175 173.474 94.1244 173.072 94.1244C172.806 94.1244 172.56 94.1815 172.336 94.2958C172.112 94.4058 171.919 94.5708 171.758 94.7909C171.597 95.0109 171.473 95.2797 171.384 95.597C171.295 95.9144 171.25 96.2805 171.25 96.6952V96.9618C171.25 97.2876 171.295 97.5944 171.384 97.8822C171.477 98.1657 171.61 98.4154 171.784 98.6312C171.961 98.847 172.175 99.0163 172.425 99.139C172.679 99.2618 172.966 99.3231 173.288 99.3231C173.703 99.3231 174.054 99.2385 174.342 99.0692C174.63 98.8999 174.881 98.6735 175.097 98.39L175.808 98.955C175.66 99.1792 175.472 99.3929 175.243 99.5961C175.015 99.7992 174.733 99.9642 174.399 100.091C174.069 100.218 173.677 100.282 173.225 100.282ZM178.442 94.3656V100.155H177.268V93.2865H178.411L178.442 94.3656ZM180.588 93.2484L180.582 94.3402C180.484 94.3191 180.391 94.3064 180.302 94.3021C180.218 94.2937 180.12 94.2894 180.01 94.2894C179.739 94.2894 179.5 94.3317 179.293 94.4164C179.086 94.501 178.91 94.6195 178.766 94.7719C178.622 94.9242 178.508 95.1062 178.423 95.3177C178.343 95.5251 178.29 95.7536 178.265 96.0033L177.935 96.1937C177.935 95.779 177.975 95.3897 178.055 95.0258C178.14 94.6618 178.269 94.3402 178.442 94.0609C178.616 93.7774 178.836 93.5573 179.103 93.4008C179.373 93.2399 179.695 93.1595 180.067 93.1595C180.152 93.1595 180.249 93.1701 180.359 93.1913C180.469 93.2082 180.546 93.2273 180.588 93.2484ZM183.876 99.0946L185.755 93.2865H186.955L184.485 100.155H183.698L183.876 99.0946ZM182.308 93.2865L184.244 99.1263L184.377 100.155H183.59L181.102 93.2865H182.308ZM189.36 93.2865V100.155H188.18V93.2865H189.36ZM188.091 91.4647C188.091 91.2743 188.148 91.1135 188.262 90.9823C188.381 90.8511 188.554 90.7855 188.783 90.7855C189.007 90.7855 189.178 90.8511 189.297 90.9823C189.42 91.1135 189.481 91.2743 189.481 91.4647C189.481 91.6467 189.42 91.8033 189.297 91.9344C189.178 92.0614 189.007 92.1249 188.783 92.1249C188.554 92.1249 188.381 92.0614 188.262 91.9344C188.148 91.8033 188.091 91.6467 188.091 91.4647ZM193.994 99.3168C194.273 99.3168 194.532 99.2596 194.769 99.1454C195.006 99.0311 195.2 98.8746 195.353 98.6757C195.505 98.4725 195.592 98.2419 195.613 97.9838H196.73C196.709 98.39 196.571 98.7688 196.317 99.12C196.068 99.467 195.74 99.7484 195.333 99.9642C194.927 100.176 194.481 100.282 193.994 100.282C193.478 100.282 193.027 100.191 192.642 100.009C192.261 99.8267 191.944 99.577 191.69 99.2596C191.44 98.9423 191.252 98.5783 191.125 98.1678C191.002 97.7531 190.941 97.3151 190.941 96.8539V96.5873C190.941 96.126 191.002 95.6901 191.125 95.2797C191.252 94.8649 191.44 94.4989 191.69 94.1815C191.944 93.8641 192.261 93.6145 192.642 93.4325C193.027 93.2505 193.478 93.1595 193.994 93.1595C194.532 93.1595 195.001 93.2696 195.403 93.4896C195.805 93.7054 196.121 94.0017 196.349 94.3783C196.582 94.7507 196.709 95.1739 196.73 95.6478H195.613C195.592 95.3643 195.511 95.1083 195.372 94.8798C195.236 94.6512 195.05 94.4693 194.813 94.3339C194.58 94.1942 194.307 94.1244 193.994 94.1244C193.634 94.1244 193.332 94.1963 193.086 94.3402C192.845 94.4799 192.653 94.6703 192.509 94.9115C192.369 95.1485 192.268 95.413 192.204 95.705C192.145 95.9927 192.115 96.2868 192.115 96.5873V96.8539C192.115 97.1543 192.145 97.4506 192.204 97.7426C192.263 98.0345 192.363 98.299 192.502 98.536C192.646 98.773 192.839 98.9634 193.08 99.1073C193.326 99.2469 193.63 99.3168 193.994 99.3168ZM200.9 100.282C200.422 100.282 199.988 100.201 199.599 100.04C199.214 99.8754 198.882 99.6447 198.603 99.3485C198.327 99.0523 198.116 98.701 197.968 98.2948C197.82 97.8885 197.746 97.4442 197.746 96.9618V96.6952C197.746 96.1366 197.828 95.6394 197.993 95.2035C198.158 94.7634 198.382 94.391 198.666 94.0863C198.95 93.7816 199.271 93.551 199.631 93.3944C199.991 93.2378 200.363 93.1595 200.748 93.1595C201.239 93.1595 201.662 93.2442 202.018 93.4135C202.377 93.5827 202.671 93.8197 202.9 94.1244C203.128 94.4248 203.298 94.7803 203.408 95.1908C203.518 95.597 203.573 96.0414 203.573 96.5238V97.0507H198.444V96.0922H202.398V96.0033C202.382 95.6986 202.318 95.4024 202.208 95.1146C202.102 94.8269 201.933 94.5899 201.7 94.4037C201.467 94.2175 201.15 94.1244 200.748 94.1244C200.481 94.1244 200.236 94.1815 200.012 94.2958C199.787 94.4058 199.595 94.5708 199.434 94.7909C199.273 95.0109 199.148 95.2797 199.06 95.597C198.971 95.9144 198.926 96.2805 198.926 96.6952V96.9618C198.926 97.2876 198.971 97.5944 199.06 97.8822C199.153 98.1657 199.286 98.4154 199.459 98.6312C199.637 98.847 199.851 99.0163 200.101 99.139C200.354 99.2618 200.642 99.3231 200.964 99.3231C201.379 99.3231 201.73 99.2385 202.018 99.0692C202.305 98.8999 202.557 98.6735 202.773 98.39L203.484 98.955C203.336 99.1792 203.147 99.3929 202.919 99.5961C202.69 99.7992 202.409 99.9642 202.075 100.091C201.745 100.218 201.353 100.282 200.9 100.282Z" fill="#9AABB4"/>
<g clip-path="url(#clip1_2_10988)">
<g clip-path="url(#clip2_2_10988)">
<g clip-path="url(#clip3_2_10988)">
<rect x="27" y="125.655" width="235" height="6" rx="3" fill="#F4F9FC"/>
<rect x="27" y="125.655" width="140" height="6" rx="3" fill="#8DD794"/>
</g>
</g>
<path d="M292.223 130.828C292.223 131.36 292.1 131.807 291.854 132.17C291.607 132.534 291.271 132.809 290.846 132.996C290.424 133.18 289.947 133.272 289.416 133.272C288.885 133.272 288.406 133.18 287.98 132.996C287.555 132.809 287.219 132.534 286.973 132.17C286.727 131.807 286.604 131.36 286.604 130.828C286.604 130.477 286.672 130.159 286.809 129.873C286.945 129.584 287.139 129.336 287.389 129.129C287.643 128.918 287.939 128.756 288.279 128.643C288.623 128.53 288.998 128.473 289.404 128.473C289.943 128.473 290.426 128.573 290.852 128.772C291.277 128.971 291.611 129.246 291.854 129.598C292.1 129.95 292.223 130.36 292.223 130.828ZM290.805 130.758C290.805 130.473 290.746 130.223 290.629 130.008C290.512 129.793 290.348 129.627 290.137 129.51C289.926 129.393 289.682 129.334 289.404 129.334C289.123 129.334 288.879 129.393 288.672 129.51C288.465 129.627 288.303 129.793 288.186 130.008C288.072 130.223 288.016 130.473 288.016 130.758C288.016 131.047 288.072 131.297 288.186 131.508C288.299 131.715 288.461 131.873 288.672 131.983C288.883 132.092 289.131 132.147 289.416 132.147C289.701 132.147 289.947 132.092 290.154 131.983C290.361 131.873 290.521 131.715 290.635 131.508C290.748 131.297 290.805 131.047 290.805 130.758ZM292.029 126.868C292.029 127.293 291.916 127.672 291.689 128.004C291.467 128.336 291.158 128.598 290.764 128.789C290.369 128.977 289.92 129.071 289.416 129.071C288.908 129.071 288.455 128.977 288.057 128.789C287.662 128.598 287.352 128.336 287.125 128.004C286.902 127.672 286.791 127.293 286.791 126.868C286.791 126.36 286.902 125.932 287.125 125.584C287.352 125.233 287.662 124.965 288.057 124.782C288.451 124.598 288.902 124.506 289.41 124.506C289.918 124.506 290.369 124.598 290.764 124.782C291.158 124.965 291.467 125.233 291.689 125.584C291.916 125.932 292.029 126.36 292.029 126.868ZM290.617 126.914C290.617 126.661 290.566 126.438 290.465 126.246C290.367 126.051 290.229 125.899 290.049 125.789C289.869 125.68 289.656 125.625 289.41 125.625C289.164 125.625 288.951 125.678 288.771 125.784C288.592 125.889 288.453 126.037 288.355 126.229C288.258 126.42 288.209 126.649 288.209 126.914C288.209 127.176 288.258 127.405 288.355 127.6C288.453 127.791 288.592 127.942 288.771 128.051C288.955 128.161 289.17 128.215 289.416 128.215C289.662 128.215 289.875 128.161 290.055 128.051C290.234 127.942 290.373 127.791 290.471 127.6C290.568 127.405 290.617 127.176 290.617 126.914ZM299.025 128.174V129.569C299.025 130.237 298.959 130.807 298.826 131.28C298.697 131.748 298.51 132.129 298.264 132.422C298.018 132.715 297.723 132.93 297.379 133.067C297.039 133.203 296.658 133.272 296.236 133.272C295.9 133.272 295.588 133.229 295.299 133.143C295.014 133.057 294.756 132.922 294.525 132.739C294.295 132.555 294.098 132.319 293.934 132.03C293.773 131.737 293.648 131.387 293.559 130.981C293.473 130.575 293.43 130.104 293.43 129.569V128.174C293.43 127.502 293.496 126.936 293.629 126.475C293.762 126.01 293.951 125.633 294.197 125.344C294.443 125.051 294.736 124.838 295.076 124.705C295.42 124.573 295.803 124.506 296.225 124.506C296.564 124.506 296.877 124.549 297.162 124.635C297.451 124.717 297.709 124.848 297.936 125.028C298.166 125.207 298.361 125.442 298.521 125.731C298.686 126.016 298.811 126.362 298.896 126.768C298.982 127.17 299.025 127.639 299.025 128.174ZM297.613 129.768V127.963C297.613 127.623 297.594 127.325 297.555 127.067C297.516 126.805 297.457 126.584 297.379 126.405C297.305 126.221 297.211 126.073 297.098 125.959C296.984 125.842 296.855 125.758 296.711 125.707C296.566 125.653 296.404 125.625 296.225 125.625C296.006 125.625 295.811 125.668 295.639 125.754C295.467 125.836 295.322 125.969 295.205 126.153C295.088 126.336 294.998 126.578 294.936 126.879C294.877 127.176 294.848 127.537 294.848 127.963V129.768C294.848 130.112 294.867 130.414 294.906 130.676C294.945 130.938 295.004 131.162 295.082 131.35C295.16 131.534 295.254 131.686 295.363 131.807C295.477 131.924 295.605 132.01 295.75 132.065C295.898 132.12 296.061 132.147 296.236 132.147C296.459 132.147 296.656 132.104 296.828 132.018C297 131.932 297.145 131.795 297.262 131.608C297.379 131.416 297.467 131.168 297.525 130.864C297.584 130.559 297.613 130.194 297.613 129.768ZM300.227 126.715V126.264C300.227 125.94 300.297 125.645 300.438 125.379C300.578 125.114 300.783 124.901 301.053 124.741C301.322 124.58 301.646 124.5 302.025 124.5C302.416 124.5 302.744 124.58 303.01 124.741C303.279 124.901 303.484 125.114 303.625 125.379C303.766 125.645 303.836 125.94 303.836 126.264V126.715C303.836 127.032 303.766 127.323 303.625 127.588C303.488 127.854 303.285 128.067 303.016 128.227C302.75 128.387 302.424 128.467 302.037 128.467C301.654 128.467 301.326 128.387 301.053 128.227C300.783 128.067 300.578 127.854 300.438 127.588C300.297 127.323 300.227 127.032 300.227 126.715ZM301.205 126.264V126.715C301.205 126.871 301.234 127.02 301.293 127.161C301.355 127.301 301.449 127.414 301.574 127.5C301.699 127.586 301.854 127.629 302.037 127.629C302.225 127.629 302.377 127.586 302.494 127.5C302.615 127.414 302.705 127.301 302.764 127.161C302.822 127.02 302.852 126.871 302.852 126.715V126.264C302.852 126.104 302.82 125.953 302.758 125.813C302.699 125.668 302.609 125.553 302.488 125.467C302.367 125.381 302.213 125.338 302.025 125.338C301.846 125.338 301.693 125.381 301.568 125.467C301.447 125.553 301.355 125.668 301.293 125.813C301.234 125.953 301.205 126.104 301.205 126.264ZM304.34 131.52V131.063C304.34 130.743 304.41 130.45 304.551 130.184C304.695 129.918 304.902 129.705 305.172 129.545C305.441 129.385 305.766 129.305 306.145 129.305C306.535 129.305 306.863 129.385 307.129 129.545C307.398 129.705 307.602 129.918 307.738 130.184C307.879 130.45 307.949 130.743 307.949 131.063V131.52C307.949 131.84 307.879 132.133 307.738 132.399C307.602 132.664 307.4 132.877 307.135 133.037C306.869 133.198 306.545 133.278 306.162 133.278C305.775 133.278 305.445 133.198 305.172 133.037C304.902 132.877 304.695 132.664 304.551 132.399C304.41 132.133 304.34 131.84 304.34 131.52ZM305.324 131.063V131.52C305.324 131.676 305.355 131.825 305.418 131.965C305.484 132.106 305.58 132.221 305.705 132.311C305.83 132.397 305.98 132.44 306.156 132.44C306.355 132.44 306.516 132.397 306.637 132.311C306.758 132.221 306.844 132.108 306.895 131.971C306.949 131.83 306.977 131.68 306.977 131.52V131.063C306.977 130.903 306.945 130.752 306.883 130.612C306.824 130.471 306.732 130.358 306.607 130.272C306.486 130.186 306.332 130.143 306.145 130.143C305.961 130.143 305.809 130.186 305.688 130.272C305.566 130.358 305.475 130.471 305.412 130.612C305.354 130.752 305.324 130.903 305.324 131.063ZM306.496 125.842L302.33 132.51L301.609 132.094L305.775 125.426L306.496 125.842Z" fill="black"/>
</g>
</g>
<defs>
<filter id="filter0_d_2_10988" x="0" y="0.154663" width="336" height="169" filterUnits="userSpaceOnUse" color-interpolation-filters="sRGB">
<feFlood flood-opacity="0" result="BackgroundImageFix"/>
<feColorMatrix in="SourceAlpha" type="matrix" values="0 0 0 0 0 0 0 0 0 0 0 0 0 0 0 0 0 0 127 0" result="hardAlpha"/>
<feOffset dy="2"/>
<feGaussianBlur stdDeviation="1.5"/>
<feComposite in2="hardAlpha" operator="out"/>
<feColorMatrix type="matrix" values="0 0 0 0 0 0 0 0 0 0 0 0 0 0 0 0 0 0 0.06 0"/>
<feBlend mode="normal" in2="BackgroundImageFix" result="effect1_dropShadow_2_10988"/>
<feBlend mode="normal" in="SourceGraphic" in2="effect1_dropShadow_2_10988" result="shape"/>
</filter>
<clipPath id="clip0_2_10988">
<rect x="289" y="35.6547" width="20" height="4" rx="2" fill="white"/>
</clipPath>
<clipPath id="clip1_2_10988">
<rect width="282" height="23" fill="white" transform="translate(27 117.155)"/>
</clipPath>
<clipPath id="clip2_2_10988">
<rect width="235" height="6" fill="white" transform="translate(27 125.655)"/>
</clipPath>
<clipPath id="clip3_2_10988">
<rect x="27" y="125.655" width="235" height="6" rx="3" fill="white"/>
</clipPath>
</defs>
</svg>
